<svg id="svg" version="1.1" xmlns="http://www.w3.org/2000/svg" xmlns:xlink="http://www.w3.org/1999/xlink" width="400" height="84.41814595660749" viewBox="0, 0, 400,84.41814595660749"><g id="svgg"><path id="path0" d="M160.017 9.300 C 159.916 9.334,159.833 9.467,159.833 9.597 C 159.833 9.777,159.547 9.838,158.625 9.853 C 157.960 9.863,157.342 9.889,157.250 9.911 C 157.158 9.932,156.990 9.961,156.875 9.975 C 156.760 9.989,156.676 10.056,156.686 10.125 C 156.765 10.621,156.624 10.667,155.014 10.667 C 153.139 10.667,152.833 10.739,152.833 11.184 C 152.833 11.466,150.777 11.689,149.779 11.516 C 149.704 11.502,149.686 11.563,149.740 11.651 C 149.794 11.739,149.761 11.858,149.667 11.917 C 149.572 11.975,149.538 12.093,149.590 12.178 C 149.643 12.264,149.494 12.333,149.260 12.333 L 148.833 12.333 148.833 14.250 L 148.833 16.167 150.750 16.167 L 152.667 16.167 152.667 16.583 C 152.667 16.985,152.628 17.000,151.587 17.000 C 150.573 17.000,150.500 17.026,150.402 17.417 C 150.310 17.782,150.202 17.836,149.524 17.853 C 149.098 17.863,148.675 17.889,148.583 17.911 C 148.492 17.932,148.323 17.961,148.208 17.975 C 148.055 17.993,148.000 18.501,148.000 19.883 C 148.000 21.159,148.067 21.839,148.208 21.991 C 148.378 22.173,148.370 22.191,148.167 22.083 C 147.971 21.980,147.959 21.997,148.112 22.163 C 148.467 22.547,150.249 22.481,150.249 22.083 C 150.250 21.785,150.378 21.745,151.458 21.701 C 152.654 21.653,152.667 21.656,152.667 22.076 C 152.667 22.433,152.590 22.500,152.180 22.500 C 151.477 22.500,151.167 22.659,151.167 23.018 C 151.167 23.296,149.304 23.507,148.144 23.359 C 147.923 23.331,147.977 27.187,148.200 27.464 C 148.383 27.688,148.377 27.710,148.167 27.603 C 148.025 27.531,148.044 27.580,148.210 27.716 C 148.690 28.109,150.249 28.007,150.249 27.583 C 150.250 27.299,150.378 27.243,151.125 27.200 L 152.000 27.149 152.000 27.991 L 152.000 28.833 150.292 28.836 C 149.352 28.837,148.471 28.910,148.333 28.996 C 148.115 29.134,148.073 31.051,148.000 44.036 C 147.923 57.806,147.896 58.915,147.638 58.896 C 147.452 58.882,147.392 58.960,147.458 59.131 C 147.515 59.279,147.486 59.344,147.391 59.286 C 147.289 59.223,147.231 59.515,147.241 60.050 L 147.256 60.917 150.699 60.962 L 154.143 61.007 154.196 60.628 C 154.232 60.379,154.364 60.250,154.583 60.250 C 154.900 60.250,154.921 60.111,155.000 57.500 C 155.070 55.204,155.125 54.750,155.333 54.750 C 155.763 54.750,155.828 54.470,155.831 52.625 L 155.833 50.833 156.250 50.833 C 156.608 50.833,156.667 50.909,156.669 51.375 C 156.672 52.001,156.814 52.250,157.167 52.250 C 157.304 52.250,157.442 52.427,157.472 52.644 C 157.503 52.862,157.671 53.076,157.847 53.122 C 158.069 53.180,158.167 53.353,158.167 53.686 C 158.167 54.404,158.424 54.895,158.710 54.722 C 158.853 54.635,158.954 54.871,159.072 55.569 C 159.118 55.836,159.243 56.136,159.352 56.236 C 159.499 56.371,159.514 56.354,159.409 56.167 C 159.290 55.954,159.310 55.950,159.541 56.137 C 159.691 56.258,159.837 56.521,159.865 56.720 C 159.898 56.949,160.055 57.103,160.292 57.137 C 160.610 57.182,160.667 57.292,160.667 57.861 C 160.667 58.385,160.737 58.550,160.991 58.616 C 161.169 58.663,161.338 58.862,161.366 59.059 C 161.397 59.279,161.557 59.437,161.781 59.469 C 162.009 59.501,162.166 59.658,162.198 59.885 C 162.227 60.086,162.344 60.259,162.458 60.271 C 162.573 60.282,162.733 60.301,162.814 60.313 C 162.895 60.324,162.999 60.477,163.045 60.653 C 163.091 60.829,163.305 60.997,163.522 61.028 C 163.787 61.065,163.917 61.193,163.917 61.417 C 163.917 61.712,164.044 61.756,165.042 61.799 C 165.660 61.826,166.176 61.920,166.188 62.008 C 166.199 62.095,166.218 62.260,166.229 62.375 C 166.244 62.526,166.766 62.592,168.125 62.615 L 170.000 62.647 170.000 62.240 C 170.000 61.848,170.041 61.833,171.167 61.833 C 172.300 61.833,172.333 61.821,172.333 61.417 C 172.333 61.006,172.580 60.917,173.623 60.955 C 173.737 60.959,173.790 60.899,173.742 60.821 C 173.628 60.636,174.302 59.961,174.487 60.075 C 174.565 60.124,174.625 60.070,174.619 59.957 C 174.593 59.412,174.897 58.689,175.185 58.614 C 175.457 58.542,175.500 58.368,175.500 57.331 C 175.500 56.315,175.540 56.146,175.759 56.230 C 175.908 56.288,175.974 56.259,175.915 56.164 C 175.858 56.072,175.920 55.956,176.051 55.906 C 176.425 55.763,176.348 54.067,175.971 54.129 C 175.565 54.196,175.522 54.047,175.487 52.452 C 175.460 51.238,175.408 50.993,175.162 50.915 C 175.001 50.864,174.831 50.675,174.784 50.494 C 174.733 50.300,174.556 50.167,174.349 50.167 C 174.088 50.167,174.000 50.062,174.000 49.750 C 174.000 49.417,173.917 49.333,173.583 49.333 C 173.207 49.333,173.140 49.258,173.179 48.882 C 173.186 48.816,173.055 48.707,172.887 48.638 C 172.528 48.491,167.840 48.501,167.868 48.649 C 167.919 48.930,167.594 49.333,167.316 49.333 C 167.142 49.333,167.000 49.440,167.000 49.571 C 167.000 49.888,166.514 50.362,166.316 50.239 C 166.218 50.179,166.176 51.153,166.204 52.779 L 166.250 55.417 167.708 55.445 L 169.167 55.474 169.167 54.753 C 169.167 54.102,169.215 54.016,169.667 53.858 C 169.970 53.752,170.167 53.746,170.167 53.842 C 170.167 53.929,170.223 53.991,170.292 53.980 C 170.742 53.909,170.833 54.052,170.833 54.833 C 170.833 55.611,170.806 55.667,170.417 55.667 C 170.187 55.667,170.009 55.723,170.020 55.792 C 170.098 56.286,169.956 56.333,168.417 56.333 C 166.944 56.333,166.833 56.310,166.833 56.000 C 166.833 55.756,166.722 55.667,166.417 55.667 C 166.109 55.667,166.000 55.578,166.000 55.329 C 166.000 55.118,165.836 54.929,165.560 54.825 C 165.318 54.733,165.168 54.610,165.225 54.552 C 165.373 54.405,164.994 53.984,164.814 54.095 C 164.733 54.146,164.593 53.995,164.504 53.760 C 164.403 53.496,164.213 53.333,164.004 53.333 C 163.755 53.333,163.667 53.224,163.667 52.917 C 163.667 52.611,163.578 52.500,163.333 52.500 C 163.132 52.500,162.994 52.384,162.986 52.208 C 162.948 51.416,162.867 51.095,162.689 51.035 C 162.362 50.926,161.991 50.482,162.092 50.320 C 162.144 50.236,161.994 50.167,161.760 50.167 C 161.359 50.167,161.333 50.116,161.333 49.333 L 161.333 48.500 161.903 48.500 C 162.666 48.500,162.998 48.355,162.889 48.071 C 162.791 47.816,162.934 47.745,163.856 47.592 C 164.288 47.521,164.455 47.411,164.439 47.210 C 164.424 47.021,164.579 46.899,164.907 46.839 C 165.177 46.790,165.383 46.694,165.366 46.625 C 165.280 46.293,165.361 46.167,165.657 46.167 C 165.835 46.167,166.025 46.095,166.079 46.007 C 166.133 45.920,166.280 45.887,166.405 45.935 C 166.530 45.983,166.690 45.931,166.759 45.819 C 166.846 45.678,166.812 45.656,166.651 45.748 C 166.493 45.837,166.504 45.788,166.684 45.596 C 166.831 45.439,167.093 45.290,167.267 45.265 C 167.441 45.239,167.593 45.132,167.604 45.026 C 167.616 44.920,167.634 44.764,167.646 44.678 C 167.657 44.593,167.835 44.499,168.042 44.470 C 168.248 44.441,168.426 44.323,168.438 44.208 C 168.449 44.094,168.468 43.925,168.479 43.833 C 168.491 43.742,168.650 43.667,168.833 43.667 C 169.054 43.667,169.167 43.556,169.167 43.337 C 169.167 43.123,169.314 42.969,169.583 42.902 C 169.844 42.836,170.000 42.679,170.000 42.482 C 170.000 42.199,170.178 42.089,170.542 42.147 C 170.610 42.158,170.667 42.062,170.667 41.935 C 170.667 41.808,170.822 41.527,171.013 41.310 C 171.203 41.094,171.304 41.022,171.237 41.151 C 171.154 41.310,171.180 41.345,171.319 41.259 C 171.431 41.190,171.482 41.028,171.433 40.900 C 171.384 40.772,171.416 40.667,171.505 40.667 C 171.594 40.667,171.667 40.292,171.667 39.833 C 171.667 39.111,171.711 39.000,172.000 39.000 C 172.311 39.000,172.333 38.889,172.333 37.347 C 172.333 35.577,172.255 35.167,171.917 35.167 C 171.799 35.167,171.656 34.979,171.598 34.750 C 171.532 34.487,171.376 34.333,171.175 34.333 C 170.972 34.333,170.837 34.198,170.803 33.958 C 170.758 33.640,170.634 33.576,169.976 33.533 C 169.372 33.494,169.182 33.411,169.116 33.158 C 168.987 32.663,164.308 32.659,163.961 33.154 C 163.781 33.411,163.506 33.482,162.577 33.511 C 161.939 33.531,161.326 33.618,161.216 33.705 C 161.105 33.791,160.934 33.812,160.837 33.752 C 160.739 33.691,160.669 33.704,160.682 33.779 C 160.761 34.230,160.619 34.333,159.920 34.333 C 159.262 34.333,159.161 34.383,159.068 34.750 C 158.861 35.575,158.167 35.309,158.167 34.405 C 158.167 33.694,158.492 33.048,158.730 33.286 C 158.787 33.342,158.842 33.283,158.853 33.153 C 158.863 33.023,158.889 32.842,158.911 32.750 C 158.932 32.658,158.961 31.510,158.975 30.198 C 158.990 28.797,159.063 27.853,159.153 27.908 C 159.391 28.055,159.855 27.499,159.824 27.104 C 159.667 25.093,159.853 22.534,160.162 22.453 C 160.471 22.372,160.494 22.195,160.537 19.642 C 160.576 17.351,160.623 16.917,160.833 16.917 C 160.971 16.917,161.162 16.816,161.259 16.693 C 161.404 16.509,161.473 16.516,161.654 16.735 C 161.775 16.881,162.119 17.000,162.418 17.000 C 162.821 17.000,162.984 17.086,163.048 17.333 C 163.124 17.621,163.276 17.667,164.167 17.667 C 165.058 17.667,165.210 17.621,165.285 17.333 C 165.333 17.150,165.509 17.000,165.676 17.000 C 165.844 17.000,166.025 16.928,166.079 16.841 C 166.133 16.753,166.280 16.721,166.405 16.769 C 166.530 16.817,166.690 16.764,166.759 16.652 C 166.846 16.511,166.813 16.490,166.651 16.582 C 166.461 16.690,166.456 16.673,166.625 16.491 C 167.193 15.879,166.774 12.708,166.174 13.079 C 166.070 13.143,166.000 13.014,166.000 12.760 L 166.000 12.333 164.095 12.333 C 162.267 12.333,162.188 12.348,162.137 12.695 C 162.043 13.332,161.304 13.239,161.366 12.598 C 161.394 12.315,161.481 12.106,161.561 12.135 C 162.016 12.298,162.309 10.304,161.933 9.595 C 161.760 9.268,160.632 9.095,160.017 9.300 M267.282 11.607 C 267.219 11.670,267.167 11.860,267.167 12.028 C 267.167 12.315,266.947 12.333,263.583 12.333 L 260.000 12.333 260.000 15.417 L 260.000 18.500 262.333 18.500 L 264.667 18.500 264.667 20.083 L 264.667 21.667 262.625 21.693 C 261.502 21.707,260.489 21.716,260.374 21.711 C 260.039 21.698,259.985 22.245,260.036 25.167 L 260.083 27.917 262.375 27.963 L 264.667 28.009 264.667 29.588 C 264.667 30.971,264.630 31.170,264.375 31.192 C 264.215 31.206,264.008 31.235,263.917 31.256 C 263.825 31.277,263.644 31.304,263.514 31.314 C 263.384 31.325,263.324 31.380,263.381 31.437 C 263.702 31.757,262.937 32.000,261.606 32.000 C 260.350 32.000,260.178 32.037,260.086 32.324 C 259.949 32.758,260.029 34.169,260.186 34.071 C 260.254 34.029,260.358 34.072,260.417 34.167 C 260.475 34.261,260.593 34.296,260.678 34.243 C 260.771 34.186,260.833 34.959,260.833 36.157 L 260.833 38.167 263.167 38.167 L 265.500 38.167 265.520 49.875 C 265.531 56.315,265.531 61.640,265.520 61.708 C 265.493 61.879,269.029 61.863,269.300 61.691 C 269.420 61.615,269.495 61.447,269.467 61.318 C 269.428 61.135,269.694 61.074,270.667 61.041 C 272.054 60.994,272.674 60.889,272.646 60.705 C 272.551 60.090,272.695 59.355,272.895 59.431 C 273.284 59.581,273.329 58.943,273.331 53.208 C 273.333 49.641,273.393 47.659,273.500 47.646 C 273.592 47.634,273.760 47.616,273.875 47.604 C 274.134 47.578,274.111 48.101,274.141 41.458 L 274.167 35.833 274.572 35.833 C 274.865 35.833,274.992 35.937,275.030 36.208 C 275.064 36.449,275.217 36.602,275.458 36.637 C 275.737 36.676,275.833 36.801,275.833 37.123 C 275.833 37.361,275.881 37.508,275.939 37.450 C 276.103 37.285,276.667 37.651,276.667 37.923 C 276.667 38.101,276.869 38.167,277.417 38.167 C 278.106 38.167,278.167 38.201,278.167 38.583 C 278.167 38.988,278.200 39.000,279.333 39.000 C 279.986 39.000,280.509 39.073,280.521 39.167 C 280.532 39.258,280.551 39.427,280.563 39.542 C 280.578 39.699,281.239 39.750,283.250 39.750 C 285.261 39.750,285.922 39.699,285.938 39.542 C 285.949 39.427,285.968 39.258,285.979 39.167 C 285.991 39.071,286.569 39.000,287.333 39.000 C 288.161 39.000,288.667 38.933,288.667 38.823 C 288.667 38.726,288.742 38.693,288.833 38.750 C 288.983 38.843,289.072 38.624,289.020 38.292 C 289.009 38.223,289.229 38.167,289.510 38.167 C 289.790 38.167,289.983 38.107,289.938 38.034 C 289.775 37.771,290.113 37.500,290.660 37.456 C 291.147 37.416,291.330 37.270,291.610 36.696 C 291.624 36.666,291.768 36.622,291.929 36.599 C 292.090 36.575,292.242 36.424,292.265 36.263 C 292.289 36.101,292.333 35.958,292.362 35.943 C 292.879 35.691,293.083 35.490,293.084 35.231 C 293.084 35.028,293.202 34.917,293.417 34.917 C 293.690 34.917,293.759 34.788,293.801 34.208 C 293.846 33.587,293.901 33.500,294.250 33.500 C 294.607 33.500,294.654 33.418,294.699 32.708 C 294.729 32.245,294.831 31.917,294.944 31.917 C 295.402 31.917,295.444 31.762,295.479 29.917 C 295.495 29.086,295.557 28.833,295.744 28.833 C 296.490 28.833,296.618 23.745,295.881 23.421 C 295.544 23.274,295.507 23.125,295.464 21.755 C 295.419 20.338,295.395 20.247,295.042 20.197 C 294.725 20.152,294.667 20.041,294.667 19.485 C 294.667 18.944,294.592 18.792,294.250 18.636 C 293.952 18.501,293.833 18.315,293.833 17.987 C 293.833 17.358,293.676 17.000,293.399 17.000 C 293.271 17.000,293.157 16.925,293.146 16.833 C 293.134 16.742,293.116 16.573,293.104 16.458 C 293.093 16.344,292.990 16.241,292.875 16.229 C 292.760 16.218,292.600 16.199,292.519 16.188 C 292.438 16.176,292.333 16.017,292.285 15.833 C 292.233 15.634,292.058 15.500,291.849 15.500 C 291.538 15.500,291.408 15.250,291.480 14.792 C 291.491 14.723,291.444 14.676,291.375 14.686 C 290.856 14.768,290.474 14.642,290.560 14.417 C 290.620 14.262,290.559 14.167,290.402 14.167 C 290.262 14.167,290.186 14.103,290.234 14.025 C 290.283 13.947,290.082 13.877,289.789 13.869 C 289.496 13.860,289.230 13.773,289.197 13.674 C 289.055 13.249,288.641 13.052,287.826 13.023 C 286.834 12.988,286.607 12.895,286.731 12.573 C 286.798 12.397,286.533 12.336,285.534 12.299 C 284.377 12.255,284.250 12.217,284.250 11.917 C 284.250 11.577,267.615 11.273,267.282 11.607 M369.778 11.611 C 369.717 11.672,369.667 12.197,369.667 12.778 C 369.667 13.783,369.594 13.927,369.125 13.853 C 369.056 13.842,368.994 13.890,368.986 13.958 C 368.978 14.027,368.951 14.271,368.926 14.500 C 368.861 15.088,368.986 15.333,369.351 15.333 C 369.525 15.333,369.676 15.408,369.688 15.500 C 369.699 15.592,369.718 15.760,369.729 15.875 C 369.754 16.124,369.716 16.120,371.917 16.146 L 373.667 16.167 373.667 17.375 L 373.667 18.583 371.792 18.559 C 369.552 18.530,369.672 18.408,369.669 20.708 L 369.667 22.500 370.083 22.500 C 370.393 22.500,370.500 22.588,370.500 22.843 C 370.500 23.032,370.575 23.140,370.667 23.083 C 370.758 23.027,370.833 23.055,370.833 23.145 C 370.833 23.236,371.040 23.306,371.292 23.301 C 371.544 23.295,372.181 23.301,372.708 23.312 L 373.667 23.333 373.667 24.917 L 373.667 26.500 371.667 26.500 L 369.667 26.500 369.667 28.417 L 369.667 30.333 371.667 30.333 L 373.667 30.333 373.667 31.927 L 373.667 33.521 373.125 33.469 C 372.748 33.433,372.589 33.335,372.603 33.146 C 372.619 32.918,372.393 32.872,371.145 32.846 L 369.667 32.816 369.669 34.950 C 369.672 36.900,369.771 37.553,370.060 37.514 C 370.119 37.506,370.954 37.500,371.917 37.500 L 373.667 37.500 373.667 39.495 L 373.667 41.489 371.708 41.536 L 369.750 41.583 369.702 43.042 L 369.654 44.500 370.494 44.500 C 371.278 44.500,371.333 44.527,371.333 44.917 C 371.333 45.321,371.367 45.333,372.500 45.333 L 373.667 45.333 373.667 46.911 L 373.667 48.489 371.708 48.536 L 369.750 48.583 369.703 50.458 L 369.656 52.333 371.661 52.333 L 373.667 52.333 373.667 54.000 L 373.667 55.667 371.661 55.667 L 369.656 55.667 369.703 57.542 L 369.750 59.417 371.708 59.464 C 372.828 59.490,373.667 59.580,373.667 59.672 C 373.667 60.016,373.697 60.087,373.887 60.190 C 373.995 60.249,375.358 60.286,376.917 60.273 L 379.750 60.250 379.797 58.292 C 379.835 56.725,379.892 56.333,380.083 56.333 C 380.557 56.333,380.667 55.677,380.667 52.844 C 380.667 50.024,380.690 49.898,381.208 49.980 C 381.417 50.013,381.459 49.393,381.481 45.894 C 381.499 43.187,381.517 43.034,381.833 42.952 C 382.152 42.869,382.167 42.724,382.167 39.784 L 382.167 36.703 382.583 36.598 L 383.000 36.494 383.000 33.320 C 383.000 31.247,383.058 30.183,383.167 30.250 C 383.258 30.307,383.333 30.269,383.333 30.167 C 383.333 30.064,383.400 30.022,383.483 30.073 C 383.748 30.237,383.791 29.799,383.822 26.592 C 383.852 23.476,383.892 23.080,384.159 23.245 C 384.505 23.459,384.620 22.706,384.655 20.008 C 384.690 17.375,384.724 17.073,385.013 16.822 C 385.303 16.571,385.333 16.302,385.333 14.022 L 385.333 11.500 377.611 11.500 C 373.364 11.500,369.839 11.550,369.778 11.611 M197.042 12.583 C 196.912 12.730,196.833 13.325,196.833 14.160 C 196.833 15.453,196.776 15.596,196.292 15.520 C 196.223 15.509,196.167 16.737,196.167 18.250 C 196.167 21.127,196.165 21.131,195.458 21.020 C 195.390 21.009,195.333 22.570,195.333 24.488 L 195.333 27.977 194.958 28.030 L 194.583 28.083 194.496 32.917 C 194.448 35.575,194.392 37.682,194.371 37.599 C 194.350 37.516,194.186 37.582,194.006 37.745 C 193.627 38.087,193.477 56.196,193.850 56.427 C 193.945 56.486,193.984 56.635,193.937 56.758 C 193.888 56.885,193.992 57.028,194.175 57.086 C 194.463 57.177,194.679 59.031,194.520 60.042 C 194.496 60.194,194.536 60.200,195.583 60.201 C 196.742 60.202,196.864 60.185,196.771 60.034 C 196.510 59.612,197.035 59.513,199.631 59.492 L 202.333 59.470 202.333 55.913 L 202.333 52.357 202.708 52.303 L 203.083 52.250 203.128 48.375 C 203.173 44.514,203.191 44.392,203.721 44.484 C 203.796 44.498,203.811 44.431,203.753 44.337 C 203.694 44.244,203.721 44.167,203.812 44.167 C 203.903 44.167,203.973 43.960,203.967 43.708 C 203.899 40.383,204.006 39.000,204.333 39.000 C 204.648 39.000,204.667 38.889,204.667 37.000 C 204.667 34.979,204.709 34.847,205.292 35.042 C 205.360 35.065,205.454 34.183,205.500 33.083 C 205.578 31.222,205.606 31.083,205.917 31.083 C 206.223 31.083,206.254 30.956,206.298 29.542 C 206.344 28.066,206.403 27.906,206.875 27.980 C 206.944 27.991,207.009 27.925,207.021 27.833 C 207.032 27.742,207.060 27.592,207.083 27.500 C 207.106 27.408,207.134 26.780,207.146 26.103 C 207.164 25.022,207.207 24.862,207.500 24.785 C 207.803 24.706,207.833 24.558,207.833 23.182 C 207.833 22.349,207.903 21.667,207.988 21.667 C 208.461 21.667,208.667 21.108,208.667 19.821 C 208.667 18.638,208.700 18.500,208.981 18.500 C 209.397 18.500,209.495 18.069,209.498 16.219 L 209.500 14.689 209.042 14.636 C 208.712 14.598,208.583 14.490,208.583 14.250 C 208.583 13.936,208.456 13.914,206.417 13.868 C 204.193 13.818,203.756 13.762,203.889 13.543 C 203.995 13.367,203.642 13.080,203.292 13.059 C 203.131 13.050,202.146 13.032,201.103 13.021 C 199.355 13.002,199.199 12.974,199.118 12.667 C 199.010 12.252,197.391 12.186,197.042 12.583 M282.167 18.083 C 282.167 18.466,282.228 18.500,282.917 18.500 C 283.329 18.500,283.667 18.570,283.667 18.655 C 283.667 18.987,284.217 19.333,284.744 19.333 C 285.202 19.333,285.316 19.409,285.407 19.770 C 285.467 20.010,285.560 20.162,285.613 20.109 C 285.775 19.947,286.333 20.327,286.333 20.599 C 286.333 20.739,286.408 20.807,286.499 20.750 C 286.591 20.694,286.752 20.838,286.858 21.071 C 286.964 21.303,287.189 21.538,287.359 21.591 C 287.558 21.655,287.674 21.861,287.688 22.178 C 287.723 23.017,287.750 23.084,288.046 23.060 C 288.285 23.041,288.333 23.186,288.333 23.922 C 288.333 24.408,288.385 24.943,288.449 25.111 C 288.561 25.406,288.554 25.406,288.261 25.115 C 288.094 24.950,287.854 24.854,287.729 24.902 C 287.548 24.971,287.500 24.741,287.500 23.812 C 287.500 22.776,287.460 22.625,287.167 22.548 C 286.983 22.500,286.824 22.395,286.813 22.314 C 286.801 22.233,286.782 22.073,286.771 21.958 C 286.759 21.844,286.656 21.741,286.542 21.729 C 286.427 21.718,286.258 21.699,286.167 21.688 C 286.075 21.676,286.000 21.517,286.000 21.333 C 286.000 21.050,285.889 21.000,285.262 21.000 C 284.623 21.000,284.516 20.949,284.470 20.625 C 284.376 19.964,278.176 19.968,278.228 20.629 C 278.244 20.841,278.086 20.939,277.628 21.000 C 277.285 21.046,276.835 21.232,276.628 21.414 C 276.420 21.596,276.178 21.746,276.091 21.747 C 276.003 21.749,275.880 21.938,275.816 22.167 C 275.752 22.396,275.692 21.477,275.683 20.125 L 275.667 17.667 278.917 17.667 L 282.167 17.667 282.167 18.083 M161.538 18.758 C 161.422 18.887,161.328 19.032,161.330 19.080 C 161.364 19.927,161.304 20.136,161.000 20.215 C 160.511 20.343,160.498 22.320,160.985 22.448 C 161.159 22.493,161.341 22.679,161.389 22.861 C 161.436 23.043,161.631 23.232,161.821 23.282 C 162.139 23.365,162.242 23.537,162.184 23.884 C 162.129 24.204,165.154 23.969,165.257 23.645 C 165.347 23.361,165.536 23.260,165.875 23.314 C 166.058 23.343,166.023 19.127,165.837 18.833 C 165.612 18.476,161.851 18.410,161.538 18.758 M201.667 26.343 C 201.667 26.807,201.609 27.151,201.539 27.108 C 201.414 27.030,201.471 25.500,201.600 25.500 C 201.637 25.500,201.667 25.879,201.667 26.343 M160.634 26.451 C 160.598 27.027,160.514 27.250,160.333 27.250 C 159.947 27.250,159.839 27.510,159.836 28.441 C 159.833 29.282,160.101 29.663,160.515 29.407 C 160.598 29.356,160.667 29.543,160.667 29.823 C 160.667 30.317,160.691 30.333,161.417 30.333 C 162.114 30.333,162.256 30.433,162.186 30.875 C 162.176 30.944,162.223 31.006,162.292 31.013 C 162.360 31.020,162.567 31.055,162.750 31.091 C 163.274 31.193,163.667 31.007,163.667 30.655 C 163.667 30.395,163.786 30.333,164.292 30.331 C 165.338 30.327,165.364 30.270,165.321 28.066 C 165.299 26.975,165.251 25.997,165.213 25.892 C 165.166 25.762,164.423 25.692,162.915 25.676 L 160.686 25.652 160.634 26.451 M282.167 25.922 C 282.167 26.062,282.335 26.245,282.542 26.328 L 282.917 26.479 282.532 26.489 C 282.320 26.495,282.184 26.560,282.229 26.633 C 282.406 26.919,282.050 27.137,281.333 27.182 C 279.933 27.270,279.327 27.960,280.147 28.534 C 280.319 28.655,280.489 28.903,280.523 29.085 C 280.560 29.276,280.745 29.439,280.960 29.470 C 281.230 29.508,281.333 29.636,281.333 29.928 L 281.333 30.333 283.833 30.333 C 285.482 30.333,286.333 30.273,286.333 30.157 C 286.333 30.060,286.408 30.027,286.500 30.083 C 286.592 30.140,286.667 30.037,286.667 29.855 C 286.667 29.638,286.796 29.505,287.042 29.470 C 287.441 29.413,287.451 29.381,287.481 28.061 C 287.497 27.354,287.558 27.190,287.834 27.118 C 288.044 27.063,288.207 26.838,288.272 26.515 C 288.386 25.943,288.453 25.911,288.875 26.232 C 289.279 26.538,289.240 26.978,288.770 27.413 C 288.551 27.616,288.374 27.924,288.376 28.099 C 288.395 29.923,288.323 30.486,288.083 30.393 C 287.904 30.325,287.803 30.443,287.730 30.809 C 287.674 31.090,287.580 31.314,287.522 31.307 C 287.195 31.266,286.993 31.354,287.083 31.500 C 287.140 31.592,287.107 31.667,287.010 31.667 C 286.913 31.667,286.833 31.929,286.833 32.250 C 286.833 32.805,286.805 32.833,286.251 32.833 C 285.850 32.833,285.605 32.937,285.461 33.167 C 285.182 33.614,281.333 33.688,281.333 33.246 C 281.333 33.098,281.129 32.951,280.846 32.894 C 280.554 32.836,280.389 32.714,280.437 32.592 C 280.480 32.479,280.381 32.281,280.216 32.152 C 279.937 31.933,279.933 31.939,280.164 32.250 C 280.408 32.580,280.407 32.580,280.039 32.266 C 279.834 32.091,279.667 31.772,279.667 31.558 C 279.667 31.343,279.610 31.176,279.542 31.186 C 278.872 31.292,278.833 31.204,278.833 29.587 C 278.833 28.040,278.842 28.004,279.250 27.902 C 279.615 27.810,279.667 27.707,279.667 27.065 C 279.667 26.396,279.702 26.333,280.083 26.333 C 280.389 26.333,280.500 26.244,280.500 26.000 C 280.500 25.711,280.611 25.667,281.333 25.667 C 281.971 25.667,282.167 25.727,282.167 25.922 M200.833 28.981 C 200.833 29.539,200.776 29.639,200.417 29.707 C 200.051 29.777,200.000 29.729,200.000 29.310 C 200.000 28.885,200.146 28.751,200.542 28.814 C 200.610 28.824,200.667 28.721,200.667 28.583 C 200.667 28.446,200.704 28.333,200.750 28.333 C 200.796 28.333,200.833 28.625,200.833 28.981 M200.000 31.899 C 200.000 32.654,199.948 32.808,199.667 32.882 C 199.402 32.951,199.333 33.109,199.333 33.651 C 199.333 34.268,199.293 34.333,198.917 34.333 C 198.566 34.333,198.500 34.255,198.500 33.839 C 198.500 33.488,198.567 33.369,198.728 33.431 C 199.014 33.541,199.161 33.026,199.164 31.911 C 199.166 31.138,199.199 31.070,199.583 31.038 C 199.980 31.005,200.000 31.046,200.000 31.899 M95.252 31.364 C 95.209 31.485,95.153 32.221,95.128 33.000 C 95.087 34.290,95.054 34.417,94.750 34.417 C 94.528 34.417,94.417 34.528,94.417 34.750 C 94.417 35.035,94.288 35.091,93.542 35.134 L 92.667 35.184 92.667 34.592 C 92.667 34.266,92.673 33.950,92.682 33.890 C 92.706 33.710,92.178 33.474,91.999 33.584 C 91.903 33.643,91.825 33.453,91.814 33.135 C 91.776 32.045,91.818 32.087,90.708 32.028 C 89.685 31.974,89.667 31.981,89.667 32.403 C 89.667 32.815,89.627 32.833,88.708 32.836 C 87.476 32.839,87.365 32.924,87.239 33.958 C 87.139 34.778,87.154 34.824,87.557 34.925 C 87.821 34.991,88.000 35.167,88.032 35.391 C 88.064 35.616,88.223 35.770,88.458 35.803 C 89.063 35.889,89.024 37.500,88.417 37.500 C 88.089 37.500,88.000 37.585,88.000 37.896 C 88.000 38.651,85.783 38.652,85.593 37.896 C 85.507 37.553,85.394 37.500,84.747 37.500 L 84.000 37.500 84.000 38.341 C 84.000 39.015,83.918 39.264,83.584 39.598 C 83.050 40.132,82.816 41.333,83.247 41.333 C 83.424 41.333,83.502 41.422,83.448 41.563 C 83.314 41.910,83.669 42.167,84.283 42.167 C 84.782 42.167,84.833 42.213,84.833 42.661 C 84.833 43.021,84.768 43.131,84.596 43.065 C 84.150 42.894,84.000 43.382,84.000 45.000 L 84.000 46.167 83.512 46.167 C 83.044 46.167,82.500 46.528,82.500 46.838 C 82.500 46.919,81.994 47.007,81.375 47.034 L 80.250 47.083 80.202 48.453 C 80.154 49.799,80.161 49.826,80.577 49.930 C 80.882 50.007,81.000 50.147,81.000 50.435 C 81.000 50.826,81.029 50.833,82.500 50.833 L 84.000 50.833 84.020 51.708 C 84.031 52.190,84.028 52.675,84.014 52.787 C 83.999 52.899,84.178 53.038,84.410 53.097 C 85.018 53.249,85.059 54.778,84.458 54.863 C 84.221 54.897,84.064 55.051,84.031 55.283 C 83.989 55.583,83.854 55.658,83.281 55.699 L 82.583 55.750 82.535 57.208 L 82.487 58.667 82.910 58.667 C 83.253 58.667,83.333 58.748,83.333 59.092 C 83.333 59.508,83.357 59.517,84.417 59.483 C 85.448 59.449,85.575 59.381,85.517 58.894 C 85.504 58.790,85.838 58.654,86.258 58.591 C 87.097 58.465,87.587 58.700,87.415 59.147 C 87.361 59.290,87.368 59.354,87.433 59.290 C 87.552 59.170,88.167 59.778,88.167 60.015 C 88.167 60.087,88.504 60.197,88.917 60.259 C 89.501 60.346,89.667 60.441,89.667 60.686 C 89.667 60.889,89.784 61.000,90.000 61.000 C 90.259 61.000,90.333 61.111,90.333 61.500 C 90.333 61.889,90.259 62.000,90.000 62.000 C 89.756 62.000,89.667 62.111,89.667 62.417 C 89.667 62.718,89.577 62.833,89.343 62.833 C 89.165 62.833,88.966 62.920,88.901 63.026 C 88.822 63.153,88.856 63.173,89.000 63.083 C 89.151 62.990,89.178 63.013,89.088 63.159 C 88.884 63.489,88.872 64.650,89.073 64.615 C 89.170 64.597,89.235 64.666,89.217 64.767 C 89.198 64.867,89.412 64.956,89.692 64.964 C 90.212 64.979,90.401 65.076,90.438 65.347 C 90.449 65.431,90.468 65.565,90.479 65.645 C 90.491 65.724,91.175 65.803,92.000 65.820 L 93.500 65.850 93.500 65.008 C 93.500 64.222,93.527 64.167,93.917 64.167 C 94.275 64.167,94.334 64.091,94.336 63.625 C 94.337 63.327,94.394 63.158,94.461 63.250 C 94.609 63.451,94.526 63.444,96.994 63.475 L 98.987 63.500 99.035 65.042 L 99.083 66.583 100.917 66.610 C 103.059 66.641,102.971 66.718,102.988 64.799 L 103.000 63.515 104.125 63.466 C 105.132 63.422,105.255 63.379,105.301 63.057 C 105.388 62.450,106.942 62.417,107.063 63.020 C 107.115 63.285,107.292 63.494,107.513 63.552 C 107.757 63.616,107.844 63.732,107.777 63.907 C 107.691 64.131,107.894 64.167,109.255 64.167 C 110.722 64.167,110.833 64.143,110.833 63.833 C 110.833 63.536,111.098 63.407,111.551 63.483 C 111.624 63.496,111.669 62.980,111.650 62.336 C 111.618 61.230,111.595 61.167,111.225 61.167 C 110.889 61.167,110.833 61.084,110.833 60.583 C 110.833 60.262,110.754 60.000,110.657 60.000 C 110.560 60.000,110.526 59.926,110.582 59.835 C 110.639 59.743,110.577 59.711,110.442 59.763 C 110.309 59.814,110.151 59.776,110.090 59.678 C 110.023 59.569,110.147 59.500,110.407 59.500 C 110.751 59.500,110.833 59.419,110.833 59.083 C 110.833 58.747,110.916 58.667,111.261 58.667 L 111.689 58.667 111.636 57.224 C 111.589 55.934,111.548 55.776,111.253 55.733 C 111.071 55.706,110.896 55.604,110.863 55.506 C 110.602 54.722,108.777 54.540,108.591 55.279 C 108.530 55.522,108.370 55.667,108.163 55.667 C 107.982 55.667,107.833 55.777,107.833 55.911 C 107.833 56.183,107.270 56.548,107.105 56.383 C 107.047 56.325,107.000 56.474,107.000 56.713 C 107.000 57.114,106.938 57.152,106.208 57.199 C 105.545 57.242,105.417 57.304,105.417 57.583 C 105.417 57.855,105.278 57.932,104.667 58.000 C 104.046 58.069,103.907 58.148,103.863 58.458 C 103.811 58.824,103.760 58.833,101.729 58.833 C 100.584 58.833,99.687 58.769,99.735 58.691 C 99.783 58.613,99.707 58.407,99.566 58.233 C 99.424 58.059,99.363 58.029,99.429 58.167 C 99.526 58.370,99.507 58.377,99.324 58.208 C 99.201 58.094,98.890 58.000,98.633 58.000 C 98.271 58.000,98.167 57.922,98.167 57.651 C 98.167 57.442,98.033 57.267,97.833 57.215 C 97.650 57.167,97.491 57.062,97.479 56.981 C 97.468 56.900,97.449 56.747,97.438 56.641 C 97.426 56.535,97.279 56.428,97.110 56.403 C 96.698 56.343,96.693 56.335,96.616 55.579 C 96.563 55.066,96.477 54.918,96.232 54.918 C 95.982 54.917,95.899 54.762,95.833 54.167 C 95.764 53.546,95.685 53.407,95.375 53.363 C 95.017 53.313,94.999 53.236,94.979 51.697 C 94.967 50.809,94.940 49.915,94.918 49.708 C 94.897 49.502,94.944 49.324,95.023 49.313 C 95.102 49.301,95.298 49.281,95.458 49.268 C 95.619 49.255,95.844 49.185,95.958 49.113 C 96.073 49.040,96.260 49.034,96.375 49.100 C 96.490 49.166,96.531 49.162,96.466 49.090 C 96.126 48.713,96.867 48.500,98.530 48.497 C 100.304 48.495,100.583 48.427,100.583 48.000 C 100.583 47.792,100.968 47.742,102.858 47.704 C 105.122 47.658,105.133 47.656,105.236 47.245 C 105.334 46.856,105.405 46.833,106.503 46.833 L 107.667 46.833 107.664 45.875 C 107.661 44.846,107.560 44.583,107.167 44.583 C 107.018 44.583,106.895 44.398,106.864 44.125 C 106.813 43.678,106.833 43.667,107.656 43.667 C 108.381 43.667,108.500 43.621,108.500 43.343 C 108.500 43.081,108.636 43.009,109.208 42.968 L 109.917 42.917 109.966 41.792 C 110.011 40.753,109.989 40.667,109.674 40.667 C 109.399 40.667,109.333 40.560,109.333 40.109 C 109.333 39.088,108.556 38.711,107.902 39.417 C 107.566 39.779,107.375 39.833,106.425 39.833 L 105.333 39.833 105.333 39.083 C 105.333 38.394,105.299 38.333,104.917 38.333 C 104.688 38.333,104.500 38.250,104.500 38.149 C 104.500 38.047,104.612 38.008,104.750 38.060 C 104.905 38.120,105.000 38.059,105.000 37.902 C 105.000 37.762,105.080 37.696,105.178 37.757 C 105.276 37.817,105.342 37.766,105.325 37.642 C 105.227 36.930,105.342 36.667,105.750 36.667 C 105.979 36.667,106.158 36.610,106.147 36.542 C 106.082 36.131,106.208 35.861,106.500 35.785 C 106.765 35.716,106.833 35.558,106.833 35.016 C 106.833 34.444,106.779 34.333,106.500 34.333 C 106.317 34.333,106.157 34.258,106.146 34.167 C 106.134 34.075,106.116 33.906,106.104 33.792 C 106.093 33.677,105.990 33.574,105.875 33.563 C 105.760 33.551,105.563 33.532,105.435 33.521 C 105.308 33.509,105.214 33.369,105.227 33.208 C 105.245 32.975,105.108 32.913,104.542 32.899 C 103.956 32.884,103.833 32.934,103.833 33.190 C 103.833 33.461,103.560 33.588,103.125 33.520 C 103.056 33.509,103.000 33.687,103.000 33.917 C 103.000 34.250,102.917 34.333,102.583 34.333 C 102.250 34.333,102.167 34.417,102.167 34.750 C 102.167 35.056,102.078 35.167,101.833 35.167 C 101.602 35.167,101.497 35.281,101.489 35.542 L 101.479 35.917 101.328 35.542 C 101.187 35.191,101.078 35.167,99.662 35.167 C 98.630 35.167,98.182 35.110,98.257 34.989 C 98.318 34.891,98.471 34.851,98.598 34.899 C 98.913 35.020,99.029 34.476,98.967 33.162 C 98.922 32.188,98.880 32.078,98.542 32.030 C 98.335 32.001,98.157 31.907,98.146 31.822 C 98.134 31.736,98.116 31.573,98.104 31.458 C 98.074 31.153,95.361 31.063,95.252 31.364 M220.770 32.199 C 220.816 32.273,220.766 32.333,220.659 32.333 C 220.552 32.333,220.508 32.446,220.560 32.583 C 220.642 32.798,217.751 33.004,216.792 32.853 C 216.723 32.842,216.667 32.983,216.667 33.167 C 216.667 33.469,216.549 33.502,215.417 33.521 C 214.729 33.532,214.017 33.560,213.833 33.583 C 213.650 33.606,213.355 33.634,213.178 33.646 C 213.001 33.657,212.808 33.817,212.750 34.000 C 212.665 34.267,212.498 34.333,211.905 34.333 L 211.167 34.333 211.167 36.599 C 211.167 38.724,211.187 38.870,211.500 38.952 C 211.816 39.034,211.834 39.188,211.854 41.978 C 211.866 43.594,211.892 45.067,211.913 45.250 C 211.933 45.433,211.961 45.672,211.975 45.780 C 211.989 45.889,212.148 46.025,212.330 46.082 C 212.640 46.181,212.662 46.366,212.705 49.218 C 212.749 52.211,212.755 52.251,213.122 52.303 C 213.491 52.355,213.494 52.380,213.538 55.803 C 213.583 59.198,213.589 59.253,213.958 59.415 C 214.263 59.548,214.333 59.713,214.333 60.290 L 214.333 61.000 216.932 61.000 C 219.391 61.000,219.536 60.982,219.618 60.667 C 219.674 60.452,219.846 60.333,220.098 60.333 C 220.491 60.333,220.491 60.333,220.537 57.875 C 220.578 55.698,220.615 55.419,220.862 55.438 C 221.048 55.452,221.108 55.373,221.042 55.202 C 220.977 55.034,221.010 54.987,221.138 55.066 C 221.285 55.157,221.333 54.058,221.333 50.593 C 221.333 46.616,221.367 46.000,221.584 46.000 C 221.740 46.000,221.910 45.717,222.035 45.250 C 222.178 44.715,222.321 44.500,222.535 44.500 C 222.742 44.500,222.833 44.373,222.833 44.083 C 222.833 43.776,222.922 43.667,223.171 43.667 C 223.380 43.667,223.570 43.504,223.670 43.240 C 223.760 43.005,223.903 42.857,223.988 42.909 C 224.149 43.009,224.410 42.708,224.414 42.417 C 224.416 42.325,224.585 42.226,224.792 42.197 C 225.063 42.158,225.167 42.032,225.167 41.738 C 225.167 41.414,225.258 41.328,225.625 41.308 C 225.877 41.294,226.184 41.275,226.306 41.265 C 226.428 41.255,226.624 41.117,226.741 40.957 C 226.890 40.753,227.184 40.667,227.727 40.667 C 228.447 40.667,228.590 40.764,228.520 41.208 C 228.509 41.277,228.638 41.333,228.807 41.333 C 228.975 41.333,229.199 41.521,229.303 41.750 C 229.407 41.979,229.607 42.167,229.746 42.167 C 229.970 42.167,230.000 43.265,230.000 51.583 L 230.000 61.000 231.719 61.000 C 233.168 61.000,233.490 60.951,233.772 60.688 C 234.052 60.427,234.455 60.363,236.235 60.298 C 238.310 60.222,238.501 60.171,238.706 59.633 C 238.730 59.569,239.444 59.503,240.292 59.487 L 241.833 59.456 241.822 57.436 C 241.810 55.505,241.710 54.794,241.452 54.821 C 241.387 54.828,241.258 54.833,241.167 54.833 C 241.065 54.833,241.000 54.089,241.000 52.934 C 241.000 51.030,240.853 50.596,240.318 50.926 C 240.231 50.980,240.167 50.201,240.167 49.078 C 240.167 47.276,240.143 47.129,239.833 47.048 C 239.536 46.970,239.498 46.812,239.479 45.564 C 239.459 44.219,239.421 43.641,239.334 43.375 C 239.312 43.306,239.305 43.188,239.318 43.113 C 239.331 43.037,239.280 43.013,239.205 43.060 C 238.881 43.260,238.688 42.841,238.637 41.831 C 238.602 41.121,238.512 40.743,238.375 40.729 C 238.260 40.718,238.092 40.699,238.000 40.688 C 237.908 40.676,237.832 40.385,237.831 40.042 C 237.828 39.323,237.649 38.960,237.332 39.033 C 237.122 39.081,236.778 38.057,236.925 37.820 C 236.960 37.763,236.804 37.631,236.577 37.527 C 236.350 37.424,236.174 37.282,236.185 37.211 C 236.231 36.929,236.160 36.668,236.042 36.686 C 235.628 36.752,235.354 36.640,235.431 36.438 C 235.480 36.313,235.384 36.150,235.218 36.078 C 234.802 35.895,234.726 35.878,234.240 35.854 C 233.973 35.841,233.856 35.764,233.928 35.648 C 234.171 35.256,233.461 35.172,229.875 35.169 C 226.312 35.167,226.167 35.179,226.167 35.491 C 226.167 35.759,226.031 35.824,225.375 35.866 C 224.699 35.909,224.576 35.972,224.530 36.292 C 224.479 36.648,224.175 36.765,223.525 36.675 C 223.386 36.656,223.348 36.723,223.427 36.851 C 223.517 36.995,223.470 37.024,223.269 36.947 C 223.092 36.879,223.023 36.903,223.089 37.009 C 223.234 37.244,222.831 37.701,222.567 37.600 C 222.450 37.555,222.321 37.646,222.280 37.801 C 222.212 38.059,222.092 33.024,222.154 32.542 C 222.169 32.427,222.099 32.333,221.997 32.333 C 221.896 32.333,221.862 32.255,221.921 32.159 C 221.991 32.047,221.791 31.999,221.358 32.024 C 220.989 32.046,220.724 32.125,220.770 32.199 M305.833 32.403 C 305.833 32.829,305.616 32.910,304.555 32.880 C 304.447 32.877,304.404 32.989,304.458 33.131 C 304.524 33.304,304.490 33.347,304.354 33.263 C 304.201 33.168,304.164 33.453,304.201 34.444 C 304.246 35.654,304.278 35.754,304.625 35.803 C 305.230 35.889,305.191 37.500,304.583 37.500 C 304.250 37.500,304.167 37.583,304.167 37.917 C 304.167 38.228,304.079 38.333,303.818 38.333 C 303.609 38.333,303.434 38.467,303.382 38.667 C 303.334 38.850,303.199 39.000,303.082 39.000 C 302.811 39.000,302.667 39.377,302.667 40.085 C 302.667 40.537,302.595 40.654,302.292 40.697 C 302.047 40.731,301.898 40.884,301.862 41.135 C 301.789 41.651,300.917 41.604,300.917 41.083 C 300.917 40.686,298.098 40.499,297.954 40.887 C 297.702 41.564,297.928 44.413,298.238 44.473 C 298.623 44.548,299.026 44.918,298.881 45.063 C 298.824 45.120,298.865 45.176,298.972 45.188 C 299.079 45.199,299.242 45.227,299.333 45.250 C 299.425 45.273,299.669 45.301,299.875 45.312 C 300.409 45.342,300.424 50.913,299.890 50.916 C 299.699 50.916,299.563 51.058,299.530 51.292 C 299.483 51.622,299.380 51.667,298.670 51.667 L 297.864 51.667 297.859 53.382 C 297.856 54.325,297.912 55.191,297.983 55.306 C 298.206 55.666,300.923 55.497,300.894 55.125 C 300.859 54.685,301.766 54.723,301.882 55.167 C 301.934 55.366,302.109 55.500,302.318 55.500 C 302.638 55.500,302.796 56.016,302.686 56.708 C 302.676 56.777,302.784 56.833,302.927 56.833 C 303.069 56.833,303.140 56.908,303.083 57.000 C 303.027 57.092,303.056 57.167,303.149 57.167 C 303.983 57.167,304.597 59.348,303.821 59.552 C 303.631 59.601,303.435 59.797,303.385 59.988 C 303.333 60.187,303.158 60.333,302.973 60.333 C 302.682 60.333,302.656 60.441,302.701 61.458 L 302.750 62.583 303.442 62.634 C 304.001 62.675,304.153 62.757,304.229 63.061 C 304.392 63.709,306.500 63.659,306.500 63.007 C 306.500 62.824,306.661 62.662,306.905 62.601 C 307.158 62.538,307.330 62.359,307.363 62.125 C 307.393 61.919,307.529 61.750,307.667 61.750 C 307.805 61.749,307.917 61.601,307.917 61.416 C 307.917 61.046,309.644 60.794,309.688 61.158 C 309.699 61.254,309.718 61.427,309.729 61.542 C 309.745 61.698,310.524 61.761,312.875 61.795 L 316.000 61.841 316.020 63.295 C 316.031 64.095,316.029 64.811,316.016 64.887 C 316.003 64.962,316.838 64.999,317.871 64.970 C 319.558 64.922,319.745 64.887,319.700 64.623 C 319.651 64.329,320.277 63.957,320.549 64.117 C 320.622 64.161,320.664 63.890,320.642 63.515 C 320.613 63.029,320.516 62.808,320.301 62.740 C 320.064 62.665,320.000 62.468,320.000 61.822 C 320.000 61.052,320.092 60.909,320.542 60.980 C 320.610 60.991,320.667 60.859,320.667 60.686 C 320.667 60.441,320.833 60.346,321.417 60.259 C 322.009 60.170,322.167 60.078,322.167 59.823 C 322.167 59.590,322.282 59.500,322.583 59.500 C 322.917 59.500,323.000 59.417,323.000 59.083 C 323.000 58.703,323.104 58.635,323.625 58.677 C 323.694 58.682,323.791 58.513,323.841 58.302 C 323.891 58.090,324.022 57.907,324.133 57.896 C 324.613 57.846,324.666 57.827,324.647 57.708 C 324.593 57.366,324.696 57.180,324.991 57.086 C 325.175 57.028,325.279 56.885,325.230 56.758 C 325.183 56.635,325.224 56.484,325.322 56.424 C 325.420 56.363,325.500 56.131,325.500 55.907 C 325.500 55.584,325.586 55.500,325.917 55.500 C 326.298 55.500,326.431 55.716,326.353 56.208 C 326.342 56.277,326.858 56.333,327.500 56.333 C 328.633 56.333,328.667 56.321,328.667 55.917 C 328.667 55.688,328.742 55.500,328.833 55.500 C 328.925 55.500,329.056 55.502,329.125 55.504 C 329.194 55.506,329.287 55.150,329.333 54.712 C 329.400 54.072,329.478 53.917,329.733 53.916 C 330.335 53.914,330.249 52.711,329.637 52.577 C 329.305 52.504,329.173 52.391,329.233 52.234 C 329.286 52.096,329.218 52.000,329.068 52.000 C 328.928 52.000,328.860 51.925,328.917 51.833 C 328.981 51.729,328.641 51.667,328.010 51.667 C 327.044 51.667,327.000 51.649,327.000 51.250 C 327.000 50.952,327.090 50.833,327.316 50.833 C 327.774 50.833,327.833 50.534,327.833 48.236 L 327.833 46.167 328.417 46.146 C 329.144 46.120,329.202 46.109,329.458 45.946 C 329.573 45.873,329.760 45.868,329.875 45.934 C 329.990 45.999,330.031 45.995,329.966 45.924 C 329.791 45.729,330.259 45.333,330.664 45.333 C 330.997 45.333,331.016 45.257,330.985 44.042 C 330.947 42.507,330.896 42.333,330.482 42.333 C 330.257 42.333,330.167 42.214,330.167 41.917 C 330.167 41.335,327.577 41.264,327.167 41.833 C 326.695 42.488,326.167 42.268,326.167 41.417 C 326.167 40.778,326.117 40.667,325.833 40.667 C 325.587 40.667,325.500 40.556,325.500 40.242 C 325.500 40.009,325.318 39.637,325.097 39.415 C 324.875 39.193,324.668 38.878,324.637 38.714 C 324.605 38.551,324.417 38.393,324.217 38.365 C 323.991 38.333,323.834 38.175,323.802 37.948 C 323.770 37.724,323.613 37.564,323.393 37.532 C 323.147 37.497,323.017 37.341,322.976 37.032 C 322.887 36.361,323.001 35.648,323.179 35.758 C 323.504 35.958,323.789 35.386,323.789 34.534 C 323.789 34.057,323.724 33.655,323.644 33.642 C 323.565 33.628,323.406 33.609,323.292 33.600 C 323.177 33.591,323.042 33.433,322.992 33.250 C 322.908 32.945,322.751 32.915,321.131 32.899 C 319.611 32.883,319.376 32.916,319.459 33.134 C 319.523 33.300,319.489 33.346,319.362 33.268 C 319.227 33.184,319.167 33.330,319.167 33.740 L 319.167 34.333 314.083 34.333 L 309.000 34.333 309.000 34.778 C 309.000 35.466,308.856 35.158,308.810 34.371 C 308.780 33.864,308.685 33.642,308.467 33.573 C 308.302 33.520,308.167 33.345,308.167 33.183 C 308.167 33.021,308.111 32.834,308.044 32.766 C 307.976 32.698,307.920 32.517,307.919 32.363 C 307.917 32.137,307.716 32.073,306.875 32.028 C 305.852 31.974,305.833 31.981,305.833 32.403 M340.932 32.191 C 340.980 32.269,340.895 32.333,340.742 32.333 C 340.564 32.333,340.499 32.423,340.560 32.583 C 340.630 32.764,340.542 32.833,340.241 32.833 C 339.948 32.833,339.777 32.960,339.663 33.260 C 339.574 33.495,339.434 33.646,339.353 33.595 C 339.146 33.467,338.913 33.832,338.858 34.369 C 338.820 34.734,338.894 34.842,339.239 34.929 C 339.587 35.016,339.671 35.142,339.688 35.601 C 339.721 36.514,339.740 36.582,339.958 36.604 C 340.073 36.616,340.242 36.634,340.333 36.646 C 340.739 36.697,340.504 37.500,340.083 37.500 C 339.750 37.500,339.667 37.583,339.667 37.917 C 339.667 38.250,339.583 38.333,339.250 38.333 C 338.944 38.333,338.833 38.422,338.833 38.667 C 338.833 38.972,338.709 39.054,338.375 38.968 C 338.306 38.950,338.212 39.156,338.165 39.426 C 338.104 39.776,337.984 39.917,337.748 39.917 C 337.566 39.917,337.410 40.030,337.401 40.167 C 337.392 40.304,337.373 40.660,337.359 40.958 C 337.325 41.674,335.736 41.827,335.637 41.125 C 335.589 40.791,335.475 40.744,334.599 40.699 C 333.423 40.639,333.339 40.728,333.336 42.042 C 333.334 42.897,333.296 43.000,332.990 43.000 C 332.184 43.000,332.632 44.408,333.458 44.468 C 333.848 44.496,334.176 44.590,334.188 44.676 C 334.199 44.763,334.218 44.927,334.229 45.042 C 334.251 45.257,334.322 45.277,335.167 45.313 L 335.667 45.333 335.667 48.145 C 335.667 50.712,335.641 50.956,335.375 50.955 C 334.567 50.952,334.348 51.026,334.250 51.333 C 334.165 51.601,333.998 51.667,333.405 51.667 L 332.667 51.667 332.667 52.349 C 332.667 52.891,332.735 53.049,333.000 53.118 C 333.315 53.201,333.431 53.869,333.378 55.292 C 333.373 55.439,333.707 55.500,334.519 55.500 C 335.556 55.500,335.667 55.468,335.667 55.167 C 335.667 54.878,335.778 54.833,336.500 54.833 C 337.222 54.833,337.333 54.878,337.333 55.167 C 337.333 55.709,337.346 55.744,337.599 55.885 C 337.732 55.960,337.797 56.090,337.745 56.175 C 337.692 56.260,337.766 56.285,337.908 56.230 C 338.102 56.156,338.167 56.242,338.167 56.571 C 338.167 56.875,338.283 57.054,338.541 57.149 C 338.747 57.225,338.915 57.429,338.916 57.601 C 338.916 57.804,339.035 57.916,339.250 57.916 C 339.797 57.917,339.805 58.762,339.259 58.899 C 338.952 58.976,338.833 59.117,338.833 59.401 C 338.833 59.675,338.744 59.789,338.542 59.773 C 338.288 59.753,338.243 59.940,338.196 61.208 L 338.142 62.667 338.560 62.667 C 338.823 62.667,339.014 62.783,339.078 62.982 C 339.280 63.618,341.879 63.679,341.969 63.050 C 341.998 62.848,342.166 62.636,342.344 62.580 C 342.521 62.524,342.676 62.408,342.688 62.322 C 342.699 62.237,342.727 62.092,342.750 62.000 C 342.773 61.908,342.801 61.646,342.813 61.417 C 342.832 61.031,342.894 61.000,343.667 61.000 C 344.486 61.000,344.615 61.107,344.520 61.708 C 344.509 61.777,345.937 61.833,347.694 61.833 C 349.451 61.833,350.842 61.881,350.784 61.939 C 350.603 62.119,351.013 62.697,351.256 62.604 C 351.436 62.535,351.496 62.777,351.535 63.716 L 351.583 64.917 353.022 64.965 C 354.430 65.011,354.463 65.004,354.564 64.601 C 354.629 64.342,354.806 64.170,355.042 64.137 C 355.398 64.086,355.418 64.007,355.440 62.500 C 355.453 61.629,355.472 60.785,355.482 60.625 C 355.496 60.399,355.650 60.333,356.163 60.333 C 356.732 60.333,356.842 60.274,356.932 59.917 C 357.000 59.644,357.160 59.493,357.393 59.481 C 357.589 59.470,357.825 59.444,357.917 59.423 C 358.008 59.402,358.182 59.373,358.302 59.359 C 358.421 59.345,358.478 59.265,358.426 59.182 C 358.283 58.950,358.502 58.512,358.722 58.592 C 359.003 58.695,359.285 58.469,359.358 58.083 C 359.393 57.900,359.533 57.750,359.669 57.750 C 360.018 57.750,360.161 57.500,360.164 56.887 C 360.166 56.465,360.243 56.346,360.542 56.303 C 360.783 56.269,360.936 56.116,360.970 55.875 C 361.051 55.306,361.833 55.344,361.833 55.917 C 361.833 56.568,364.048 56.527,364.100 55.875 C 364.109 55.760,364.128 55.488,364.142 55.269 C 364.157 55.025,364.295 54.839,364.500 54.785 C 364.997 54.655,365.008 52.500,364.512 52.500 C 364.305 52.500,364.171 52.366,364.137 52.125 C 364.091 51.805,363.967 51.743,363.292 51.699 L 362.500 51.648 362.500 48.908 L 362.500 46.167 363.580 46.167 C 364.593 46.167,364.667 46.141,364.765 45.750 C 364.849 45.414,364.979 45.329,365.435 45.313 C 366.348 45.279,366.382 45.265,366.442 44.917 C 366.544 44.317,366.345 43.833,365.997 43.833 C 365.699 43.833,365.667 43.718,365.667 42.667 L 365.667 41.500 364.102 41.500 C 362.714 41.500,362.540 41.533,362.560 41.792 C 362.576 41.993,362.442 42.100,362.125 42.136 C 361.667 42.189,361.540 41.890,361.657 41.029 C 361.674 40.907,361.539 40.769,361.358 40.721 C 361.177 40.674,360.983 40.455,360.928 40.234 C 360.864 39.980,360.707 39.833,360.497 39.833 C 360.182 39.833,360.069 39.509,360.158 38.858 C 360.175 38.734,360.109 38.683,360.011 38.743 C 359.913 38.804,359.833 38.744,359.833 38.612 C 359.833 38.479,359.702 38.381,359.542 38.394 C 359.344 38.409,359.267 38.317,359.303 38.108 C 359.335 37.923,359.285 37.844,359.178 37.910 C 359.079 37.971,359.000 37.896,359.000 37.742 C 359.000 37.571,358.909 37.499,358.764 37.555 C 358.500 37.656,358.272 37.234,358.442 36.959 C 358.506 36.855,358.472 36.831,358.359 36.901 C 358.237 36.976,358.167 36.891,358.167 36.667 C 358.167 36.473,358.227 36.351,358.301 36.396 C 358.374 36.442,358.454 35.847,358.479 35.073 C 358.522 33.686,358.517 33.665,358.078 33.498 C 357.779 33.384,357.665 33.245,357.730 33.075 C 357.814 32.857,357.611 32.828,356.289 32.869 L 354.750 32.917 354.699 33.625 C 354.652 34.269,354.607 34.334,354.199 34.338 C 353.952 34.341,351.669 34.339,349.125 34.333 L 344.500 34.324 344.477 34.787 C 344.457 35.208,344.448 35.214,344.380 34.856 C 344.339 34.639,344.165 34.425,343.995 34.380 C 343.766 34.321,343.671 34.116,343.634 33.608 C 343.592 33.037,343.518 32.907,343.208 32.863 C 342.935 32.825,342.833 32.698,342.833 32.400 C 342.833 32.007,342.792 31.991,341.839 32.020 C 341.292 32.036,340.884 32.113,340.932 32.191 M125.299 33.160 C 125.118 33.449,124.912 33.500,123.918 33.502 C 122.432 33.505,122.000 33.622,122.000 34.019 C 122.000 34.290,121.868 34.334,121.042 34.336 C 120.013 34.339,119.750 34.440,119.750 34.833 C 119.750 34.982,119.565 35.105,119.292 35.136 C 118.979 35.172,118.833 35.285,118.833 35.492 C 118.833 35.770,118.495 35.912,117.551 36.031 C 117.441 36.044,117.357 36.099,117.362 36.153 C 117.402 36.525,117.279 36.667,116.917 36.667 C 116.589 36.667,116.500 36.751,116.500 37.064 C 116.500 37.326,116.382 37.492,116.154 37.552 C 115.964 37.601,115.768 37.797,115.718 37.988 C 115.668 38.178,115.562 38.343,115.481 38.354 C 115.400 38.366,115.240 38.385,115.125 38.396 C 114.917 38.417,114.889 38.518,114.853 39.363 C 114.838 39.692,114.735 39.824,114.458 39.863 C 113.770 39.961,113.895 42.167,114.589 42.167 C 114.808 42.167,114.864 42.273,114.819 42.606 C 114.789 42.833,115.202 42.934,116.123 42.926 C 116.989 42.918,117.089 42.880,117.137 42.542 C 117.175 42.270,117.302 42.167,117.595 42.167 C 117.916 42.167,118.000 42.080,118.000 41.750 C 118.000 41.342,118.264 41.227,118.975 41.325 C 119.099 41.342,119.151 41.276,119.090 41.178 C 119.030 41.080,119.065 41.000,119.169 41.000 C 119.272 41.000,119.470 40.887,119.609 40.748 C 119.747 40.610,119.927 40.538,120.009 40.589 C 120.090 40.639,120.205 40.490,120.263 40.257 C 120.362 39.864,121.482 39.646,122.542 39.814 C 122.610 39.824,122.667 39.646,122.667 39.417 C 122.667 39.009,122.694 39.000,123.917 39.000 C 125.139 39.000,125.167 39.009,125.167 39.417 C 125.167 39.793,125.233 39.833,125.845 39.833 C 126.497 39.833,127.105 40.172,126.872 40.406 C 126.811 40.467,126.882 40.471,127.030 40.414 C 127.178 40.357,127.349 40.391,127.410 40.489 C 127.470 40.587,127.703 40.667,127.927 40.667 C 128.249 40.667,128.333 40.753,128.333 41.083 C 128.333 41.395,128.245 41.500,127.984 41.500 C 127.776 41.500,127.600 41.634,127.548 41.833 C 127.469 42.136,126.663 42.310,125.941 42.181 C 125.585 42.117,125.167 42.385,125.167 42.678 C 125.167 42.953,125.046 43.000,124.333 43.000 C 123.556 43.000,123.500 43.028,123.500 43.417 C 123.500 43.823,122.784 43.992,121.692 43.842 C 121.568 43.825,121.516 43.891,121.576 43.989 C 121.637 44.087,121.569 44.167,121.427 44.167 C 121.284 44.167,121.167 44.236,121.167 44.322 C 121.167 44.407,120.998 44.501,120.792 44.530 C 120.551 44.564,120.398 44.717,120.363 44.958 C 120.324 45.235,120.192 45.338,119.863 45.353 C 118.988 45.390,118.916 45.421,118.865 45.781 C 118.832 46.009,118.675 46.166,118.448 46.198 C 118.217 46.231,118.064 46.388,118.030 46.625 C 117.990 46.909,117.867 47.000,117.522 47.000 C 117.271 47.000,116.966 47.094,116.842 47.208 C 116.661 47.377,116.643 47.372,116.751 47.183 C 116.844 47.021,116.822 46.987,116.681 47.074 C 116.569 47.144,116.514 47.296,116.559 47.413 C 116.664 47.688,116.355 47.998,116.080 47.892 C 115.963 47.847,115.810 47.902,115.741 48.014 C 115.654 48.155,115.687 48.177,115.849 48.085 C 116.039 47.977,116.044 47.994,115.875 48.176 C 115.760 48.299,115.667 48.610,115.667 48.867 C 115.667 49.251,115.594 49.333,115.259 49.333 C 114.891 49.333,114.847 49.410,114.801 50.125 C 114.758 50.789,114.696 50.917,114.417 50.917 C 113.860 50.917,113.901 57.057,114.458 57.137 C 114.783 57.183,114.833 57.289,114.833 57.928 C 114.833 58.605,114.868 58.667,115.250 58.667 C 115.597 58.667,115.670 58.750,115.688 59.167 C 115.722 59.996,115.743 60.083,115.917 60.102 C 116.882 60.208,117.256 60.436,117.186 60.875 C 117.176 60.944,117.389 61.000,117.661 61.000 C 118.033 61.000,118.132 61.062,118.060 61.250 C 117.999 61.411,118.064 61.500,118.242 61.500 C 118.395 61.500,118.484 61.557,118.441 61.627 C 118.398 61.697,118.784 61.777,119.299 61.805 C 120.385 61.864,120.525 61.925,120.463 62.304 C 120.420 62.560,120.925 62.587,126.625 62.624 C 133.017 62.666,132.928 62.674,132.846 62.042 C 132.826 61.886,133.297 61.833,134.725 61.833 C 136.637 61.833,137.071 61.686,136.741 61.152 C 136.688 61.067,137.114 61.000,137.709 61.000 C 138.540 61.000,138.848 60.928,139.128 60.667 C 139.325 60.483,139.705 60.333,139.972 60.333 C 140.933 60.333,141.500 60.140,141.500 59.813 C 141.500 59.520,142.000 59.391,142.772 59.483 C 143.220 59.536,143.400 48.651,142.958 48.176 C 142.790 47.994,142.795 47.977,142.984 48.085 C 143.143 48.175,143.179 48.155,143.097 48.021 C 143.030 47.913,142.849 47.845,142.696 47.871 C 142.454 47.910,142.410 47.707,142.369 46.358 C 142.326 44.971,142.284 44.789,141.994 44.713 C 141.732 44.645,141.667 44.483,141.667 43.900 C 141.667 43.264,141.615 43.160,141.250 43.068 C 140.861 42.971,140.663 42.146,140.819 41.274 C 140.866 41.015,140.480 40.685,140.238 40.778 C 140.068 40.843,140.000 40.740,140.000 40.419 C 140.000 40.109,139.896 39.942,139.667 39.882 C 139.406 39.813,139.333 39.654,139.333 39.150 C 139.333 38.609,139.269 38.490,138.931 38.405 C 138.691 38.345,138.488 38.142,138.428 37.902 C 138.364 37.646,138.207 37.500,137.997 37.500 C 137.756 37.500,137.667 37.388,137.667 37.083 C 137.667 36.750,137.583 36.667,137.250 36.667 C 136.917 36.667,136.833 36.583,136.833 36.250 C 136.833 35.944,136.744 35.833,136.500 35.833 C 136.202 35.833,136.089 35.660,136.147 35.292 C 136.158 35.223,135.987 35.167,135.768 35.167 C 135.482 35.167,135.340 35.049,135.265 34.750 C 135.173 34.384,135.070 34.333,134.425 34.333 C 133.790 34.333,133.683 34.283,133.637 33.958 C 133.588 33.618,133.481 33.579,132.458 33.534 C 131.488 33.492,131.333 33.442,131.333 33.173 C 131.333 32.668,125.613 32.656,125.299 33.160 M163.000 38.583 C 163.000 38.917,163.083 39.000,163.417 39.000 C 163.806 39.000,163.833 39.056,163.833 39.833 C 163.833 40.647,163.749 40.755,163.157 40.697 C 163.106 40.692,163.046 41.000,163.023 41.381 C 162.977 42.169,162.973 42.176,162.557 42.236 C 162.388 42.260,162.226 42.442,162.197 42.640 C 162.149 42.965,161.982 43.076,161.625 43.020 C 161.497 43.000,161.439 43.254,161.488 43.625 C 161.502 43.740,161.354 43.833,161.158 43.833 C 160.942 43.833,160.768 43.965,160.714 44.168 C 160.666 44.353,160.448 44.548,160.230 44.603 C 159.993 44.663,159.833 44.826,159.833 45.008 C 159.833 45.240,159.660 45.339,159.104 45.422 C 158.568 45.503,158.381 45.604,158.396 45.807 C 158.410 45.991,158.263 46.101,157.958 46.136 C 157.598 46.177,157.500 46.276,157.500 46.594 C 157.500 46.916,157.414 47.000,157.083 47.000 C 156.497 47.000,156.417 43.771,157.000 43.618 C 157.302 43.539,157.333 43.391,157.333 42.034 C 157.333 40.714,157.368 40.540,157.623 40.560 C 157.783 40.573,157.988 40.415,158.079 40.208 C 158.192 39.954,158.390 39.833,158.693 39.833 C 159.338 39.833,159.659 39.674,159.556 39.404 C 159.450 39.130,159.670 39.031,160.582 38.945 C 160.999 38.905,161.255 38.794,161.265 38.649 C 161.275 38.521,161.294 38.360,161.308 38.292 C 161.388 37.897,163.000 38.175,163.000 38.583 M313.735 40.062 C 313.642 40.304,313.993 40.510,314.644 40.596 C 314.861 40.625,315.147 40.802,315.279 40.991 C 315.411 41.179,315.626 41.333,315.756 41.333 C 315.887 41.333,316.041 41.520,316.098 41.749 C 316.155 41.977,316.254 42.132,316.317 42.093 C 316.572 41.936,316.806 42.286,316.868 42.917 C 316.919 43.443,317.000 43.582,317.258 43.583 C 317.533 43.583,317.591 43.719,317.634 44.458 C 317.676 45.197,317.735 45.333,318.009 45.333 C 318.519 45.333,318.511 50.081,318.000 50.215 C 317.706 50.292,317.667 50.442,317.667 51.479 C 317.667 52.509,317.632 52.643,317.389 52.550 C 317.203 52.478,317.151 52.507,317.232 52.638 C 317.303 52.752,317.255 52.833,317.119 52.833 C 316.973 52.833,316.879 53.021,316.870 53.331 C 316.852 53.967,316.712 54.187,316.362 54.129 C 316.185 54.100,316.065 54.214,316.032 54.443 C 316.002 54.656,315.823 54.842,315.592 54.900 C 315.355 54.959,315.212 55.111,315.227 55.290 C 315.245 55.526,315.094 55.593,314.458 55.634 C 313.803 55.676,313.667 55.741,313.667 56.009 C 313.667 56.287,313.548 56.333,312.833 56.333 C 312.111 56.333,312.000 56.289,312.000 56.000 C 312.000 55.817,311.944 55.676,311.875 55.686 C 311.456 55.752,310.337 55.646,310.353 55.542 C 310.409 55.186,310.316 54.825,310.188 54.903 C 310.004 55.017,309.302 54.421,309.447 54.275 C 309.507 54.215,309.393 54.167,309.194 54.167 C 308.939 54.167,308.833 54.065,308.833 53.818 C 308.833 53.612,308.700 53.434,308.508 53.384 C 308.255 53.318,308.172 53.128,308.133 52.524 C 308.091 51.866,308.027 51.742,307.708 51.697 L 307.333 51.643 307.333 48.083 L 307.333 44.523 307.708 44.470 C 308.096 44.415,308.111 44.379,308.146 43.435 C 308.161 43.011,308.238 42.876,308.453 42.894 C 308.643 42.909,308.776 42.750,308.850 42.417 C 308.911 42.142,308.969 41.973,308.980 42.042 C 308.991 42.110,309.138 42.035,309.307 41.875 C 309.476 41.715,309.584 41.527,309.547 41.458 C 309.510 41.390,309.560 41.324,309.657 41.313 C 309.754 41.301,309.902 41.282,309.986 41.271 C 310.070 41.259,310.201 41.182,310.278 41.098 C 310.361 41.008,310.316 41.004,310.167 41.089 C 309.954 41.209,309.950 41.190,310.137 40.959 C 310.340 40.709,311.072 40.454,311.666 40.428 C 311.803 40.422,311.925 40.323,311.937 40.208 C 311.949 40.094,311.968 39.962,311.979 39.917 C 311.991 39.871,312.410 39.833,312.911 39.833 C 313.615 39.833,313.803 39.885,313.735 40.062 M349.231 40.232 C 349.286 40.451,349.425 40.627,349.540 40.622 C 350.388 40.590,350.667 40.683,350.667 41.000 C 350.667 41.242,350.778 41.333,351.072 41.333 C 351.365 41.333,351.492 41.437,351.530 41.708 C 351.564 41.946,351.717 42.102,351.949 42.135 C 352.249 42.178,352.324 42.313,352.366 42.885 C 352.408 43.464,352.481 43.592,352.792 43.637 C 353.149 43.687,353.167 43.761,353.167 45.194 C 353.167 46.558,353.198 46.706,353.500 46.785 C 353.868 46.881,354.016 48.500,353.657 48.500 C 353.560 48.500,353.527 48.575,353.583 48.667 C 353.640 48.758,353.569 48.833,353.427 48.833 C 353.284 48.833,353.176 48.890,353.186 48.958 C 353.382 50.195,353.129 52.482,352.792 52.530 C 352.481 52.574,352.408 52.703,352.366 53.281 C 352.324 53.854,352.249 53.989,351.949 54.031 C 351.717 54.064,351.564 54.221,351.530 54.458 C 351.496 54.698,351.362 54.833,351.158 54.833 C 350.957 54.833,350.801 54.987,350.735 55.250 C 350.636 55.645,350.033 55.776,348.883 55.654 C 348.819 55.648,348.709 55.798,348.639 55.988 C 348.488 56.396,347.500 56.494,347.500 56.101 C 347.500 55.780,347.126 55.667,346.070 55.667 C 345.218 55.667,345.167 55.643,345.167 55.250 C 345.167 54.917,345.083 54.833,344.750 54.833 C 344.403 54.833,344.330 54.750,344.313 54.333 C 344.277 53.482,344.250 53.416,343.954 53.440 C 343.744 53.457,343.667 53.336,343.667 52.991 C 343.667 52.732,343.587 52.470,343.489 52.410 C 343.391 52.349,343.357 52.178,343.414 52.030 C 343.471 51.882,343.467 51.811,343.406 51.872 C 343.092 52.186,342.844 51.446,342.798 50.060 C 342.753 48.673,342.727 48.580,342.375 48.530 C 341.885 48.460,341.829 47.667,342.314 47.667 C 342.735 47.667,342.828 47.236,342.831 45.292 C 342.833 43.670,342.834 43.667,343.250 43.667 C 343.578 43.667,343.667 43.582,343.667 43.270 C 343.667 43.052,343.794 42.771,343.949 42.645 C 344.192 42.448,344.211 42.451,344.089 42.667 C 344.004 42.816,344.008 42.861,344.098 42.778 C 344.267 42.624,344.282 42.554,344.313 41.833 C 344.330 41.417,344.403 41.333,344.750 41.333 C 345.056 41.333,345.167 41.244,345.167 41.000 C 345.167 40.682,345.494 40.586,346.458 40.622 C 346.573 40.626,346.667 40.450,346.667 40.231 C 346.667 39.612,349.075 39.613,349.231 40.232 M97.587 42.397 C 97.714 42.523,97.771 42.673,97.714 42.730 C 97.658 42.787,97.792 42.839,98.014 42.847 L 98.417 42.860 97.979 43.055 C 97.554 43.244,97.500 43.313,97.500 43.667 C 97.500 43.770,96.689 43.828,95.375 43.820 C 93.747 43.810,93.357 43.768,93.708 43.640 C 93.960 43.548,94.167 43.366,94.167 43.236 C 94.167 43.095,94.335 43.000,94.583 43.000 C 94.917 43.000,95.000 42.917,95.000 42.583 C 95.000 42.087,97.124 41.934,97.587 42.397 M130.692 49.708 C 130.723 54.015,130.693 53.652,131.043 53.908 C 131.492 54.236,131.459 56.175,131.000 56.461 C 130.757 56.613,130.667 56.850,130.667 57.335 C 130.667 57.933,130.625 58.000,130.250 58.000 C 129.917 58.000,129.833 58.083,129.833 58.417 L 129.833 58.833 127.833 58.833 L 125.833 58.833 125.814 57.792 C 125.803 57.219,125.803 56.694,125.814 56.625 C 125.834 56.497,125.580 56.439,125.208 56.488 C 125.055 56.507,125.000 56.113,125.000 54.992 C 125.000 53.618,124.968 53.460,124.673 53.383 C 124.382 53.307,124.340 53.126,124.298 51.774 C 124.253 50.337,124.229 50.247,123.875 50.197 C 123.238 50.106,123.316 48.508,123.958 48.481 C 124.811 48.445,124.884 48.417,124.930 48.110 C 124.991 47.693,124.997 47.690,125.797 47.643 C 126.461 47.604,126.601 47.472,126.520 46.958 C 126.503 46.855,127.620 46.757,128.458 46.789 C 128.573 46.793,128.667 46.688,128.667 46.555 C 128.667 46.422,128.742 46.360,128.833 46.417 C 128.925 46.473,129.000 46.440,129.000 46.343 C 129.000 46.242,129.358 46.167,129.833 46.167 L 130.667 46.167 130.692 49.708 M137.020 46.375 C 137.031 46.490,137.031 46.640,137.020 46.708 C 137.009 46.777,137.169 46.838,137.375 46.844 L 137.750 46.854 137.367 47.008 C 137.143 47.098,137.005 47.276,137.034 47.438 C 137.087 47.734,136.439 47.867,135.708 47.711 C 135.389 47.642,135.333 47.523,135.333 46.899 L 135.333 46.167 136.167 46.167 C 136.712 46.167,137.007 46.239,137.020 46.375 M235.500 47.667 L 235.500 48.500 234.750 48.500 L 234.000 48.500 234.000 47.667 L 234.000 46.833 234.750 46.833 L 235.500 46.833 235.500 47.667 M137.894 53.537 C 137.882 53.694,138.013 53.868,138.186 53.923 C 138.438 54.003,138.500 54.186,138.500 54.845 L 138.500 55.667 137.750 55.667 C 137.337 55.667,137.009 55.723,137.020 55.792 C 137.082 56.189,136.966 56.389,136.848 56.087 C 136.777 55.906,136.539 55.713,136.318 55.659 C 136.081 55.601,135.926 55.448,135.939 55.285 C 135.951 55.134,135.820 54.965,135.647 54.911 C 135.201 54.769,135.217 54.000,135.667 54.000 C 135.986 54.000,136.074 53.838,136.010 53.366 C 135.989 53.205,136.229 53.162,136.949 53.200 C 137.744 53.241,137.913 53.301,137.894 53.537 M236.333 54.417 L 236.333 55.667 235.399 55.667 C 234.634 55.667,234.482 55.621,234.561 55.415 C 234.617 55.268,234.521 55.079,234.329 54.958 C 233.986 54.745,233.868 54.000,234.177 54.000 C 234.274 54.000,234.307 53.925,234.250 53.833 C 234.193 53.742,234.262 53.667,234.402 53.667 C 234.559 53.667,234.620 53.572,234.560 53.417 C 234.482 53.213,234.637 53.167,235.399 53.167 L 236.333 53.167 236.333 54.417 " stroke="none" fill="#dcdcdc" fill-rule="evenodd"></path><path id="path1" d="M47.948 13.108 C 47.885 13.171,47.833 13.360,47.833 13.528 C 47.833 13.803,47.674 13.833,46.250 13.833 C 44.672 13.833,44.667 13.835,44.667 14.250 C 44.667 14.655,44.633 14.667,43.500 14.667 C 42.367 14.667,42.333 14.679,42.333 15.083 C 42.333 15.472,42.278 15.500,41.500 15.500 C 40.797 15.500,40.667 15.549,40.667 15.812 C 40.667 16.048,40.501 16.151,39.983 16.233 C 39.498 16.311,39.275 16.438,39.214 16.671 C 39.159 16.882,38.986 17.000,38.731 17.000 C 38.418 17.000,38.333 17.089,38.333 17.417 C 38.333 17.750,38.250 17.833,37.917 17.833 C 37.616 17.833,37.500 17.923,37.500 18.155 C 37.500 18.362,37.366 18.496,37.125 18.530 C 36.884 18.564,36.731 18.717,36.697 18.958 C 36.663 19.199,36.529 19.333,36.322 19.333 C 36.090 19.333,36.000 19.449,36.000 19.750 C 36.000 20.083,35.917 20.167,35.583 20.167 C 35.202 20.167,35.167 20.229,35.167 20.905 C 35.167 21.544,35.116 21.651,34.792 21.697 C 34.551 21.731,34.398 21.884,34.363 22.125 C 34.330 22.357,34.195 22.500,34.006 22.500 C 33.615 22.500,33.500 22.820,33.500 23.911 C 33.500 24.654,33.447 24.808,33.167 24.882 C 32.864 24.961,32.833 25.109,32.833 26.484 L 32.833 28.000 28.920 28.000 L 25.006 28.000 24.902 28.417 C 24.804 28.807,24.729 28.833,23.735 28.833 C 22.741 28.833,22.666 28.860,22.568 29.250 C 22.493 29.549,22.351 29.667,22.065 29.667 C 21.786 29.667,21.667 29.761,21.667 29.981 C 21.667 30.154,21.518 30.333,21.333 30.382 C 21.040 30.458,21.000 30.609,21.000 31.651 C 21.000 32.801,20.989 32.833,20.583 32.833 C 20.182 32.833,20.167 32.872,20.167 33.917 C 20.167 34.961,20.182 35.000,20.583 35.000 C 20.972 35.000,21.000 35.056,21.000 35.833 C 21.000 36.556,21.044 36.667,21.333 36.667 C 21.517 36.667,21.667 36.777,21.667 36.911 C 21.667 37.444,22.302 37.500,28.313 37.500 L 34.314 37.500 34.365 38.208 C 34.408 38.797,34.480 38.926,34.792 38.970 C 35.081 39.011,35.161 39.125,35.144 39.470 C 35.125 39.834,35.108 39.851,35.052 39.561 C 34.893 38.752,29.667 38.710,29.667 39.518 C 29.667 39.789,29.539 39.833,28.764 39.833 C 27.646 39.833,27.333 39.947,27.333 40.351 C 27.333 40.577,27.214 40.667,26.917 40.667 C 26.583 40.667,26.500 40.750,26.500 41.083 C 26.500 41.467,26.440 41.500,25.734 41.500 C 25.109 41.500,24.953 41.561,24.882 41.833 C 24.833 42.018,24.654 42.167,24.481 42.167 C 24.257 42.167,24.167 42.286,24.167 42.583 C 24.167 42.917,24.083 43.000,23.750 43.000 C 23.419 43.000,23.333 43.084,23.333 43.407 C 23.333 43.767,23.251 43.820,22.625 43.865 C 21.940 43.915,21.912 43.940,21.760 44.625 C 21.646 45.139,21.520 45.333,21.301 45.333 C 21.091 45.333,21.000 45.459,21.000 45.750 C 21.000 46.083,20.917 46.167,20.583 46.167 C 20.253 46.167,20.167 46.251,20.167 46.572 C 20.167 46.865,20.063 46.992,19.792 47.030 C 19.551 47.064,19.398 47.217,19.363 47.458 C 19.329 47.699,19.195 47.833,18.988 47.833 C 18.719 47.833,18.667 47.953,18.667 48.572 C 18.667 49.211,18.616 49.317,18.292 49.363 C 17.951 49.412,17.912 49.520,17.868 50.531 C 17.823 51.535,17.782 51.651,17.451 51.698 C 17.106 51.747,17.080 51.846,17.035 53.292 C 16.993 54.665,16.954 54.833,16.678 54.833 C 16.209 54.833,16.167 55.122,16.167 58.333 C 16.167 61.552,16.208 61.833,16.684 61.833 C 16.972 61.833,17.000 61.974,17.000 63.417 C 17.000 64.994,17.001 65.000,17.417 65.000 C 17.806 65.000,17.833 65.056,17.833 65.833 C 17.833 66.611,17.861 66.667,18.250 66.667 C 18.633 66.667,18.667 66.728,18.667 67.417 C 18.667 68.041,18.720 68.167,18.981 68.167 C 19.226 68.167,19.320 68.333,19.408 68.917 C 19.497 69.509,19.588 69.667,19.844 69.667 C 20.077 69.667,20.167 69.782,20.167 70.083 C 20.167 70.417,20.250 70.500,20.583 70.500 C 20.917 70.500,21.000 70.583,21.000 70.917 C 21.000 71.204,21.092 71.333,21.294 71.333 C 21.455 71.333,21.662 71.502,21.752 71.708 C 21.843 71.915,22.085 72.107,22.292 72.137 C 22.533 72.171,22.667 72.305,22.667 72.512 C 22.667 72.782,22.787 72.833,23.417 72.833 C 24.106 72.833,24.167 72.867,24.167 73.250 C 24.167 73.633,24.228 73.667,24.917 73.667 C 25.606 73.667,25.667 73.701,25.667 74.083 C 25.667 74.471,25.723 74.500,26.488 74.500 C 27.214 74.500,27.316 74.544,27.363 74.875 C 27.414 75.229,27.503 75.253,28.958 75.298 C 30.363 75.342,30.500 75.375,30.500 75.673 C 30.500 76.190,39.650 76.184,39.785 75.667 C 39.863 75.369,40.012 75.333,41.172 75.333 C 42.690 75.333,43.000 75.245,43.000 74.816 C 43.000 74.553,43.125 74.500,43.750 74.500 C 44.439 74.500,44.500 74.466,44.500 74.083 C 44.500 73.694,44.556 73.667,45.333 73.667 C 46.111 73.667,46.167 73.639,46.167 73.250 C 46.167 72.867,46.228 72.833,46.917 72.833 C 47.556 72.833,47.667 72.784,47.667 72.500 C 47.667 72.256,47.778 72.167,48.083 72.167 C 48.417 72.167,48.500 72.083,48.500 71.750 C 48.500 71.375,48.566 71.333,49.171 71.333 C 49.733 71.333,49.867 71.266,50.000 70.917 C 50.087 70.688,50.275 70.500,50.417 70.500 C 50.559 70.500,50.746 70.312,50.833 70.083 C 50.920 69.854,51.098 69.667,51.228 69.667 C 51.512 69.667,51.667 69.310,51.667 68.653 C 51.667 68.245,51.734 68.167,52.083 68.167 C 52.413 68.167,52.500 68.083,52.500 67.762 C 52.500 67.468,52.604 67.342,52.875 67.303 C 53.110 67.270,53.269 67.116,53.301 66.892 C 53.329 66.695,53.498 66.496,53.676 66.449 C 53.929 66.383,54.000 66.218,54.000 65.694 C 54.000 65.125,54.057 65.015,54.375 64.970 C 54.715 64.922,54.755 64.814,54.799 63.802 C 54.843 62.798,54.884 62.683,55.216 62.636 C 55.560 62.587,55.586 62.487,55.631 61.042 C 55.675 59.637,55.708 59.500,56.006 59.500 C 56.522 59.500,56.516 52.683,56.000 52.548 C 55.703 52.471,55.667 52.321,55.667 51.161 C 55.667 49.650,55.578 49.333,55.158 49.333 C 54.911 49.333,54.842 49.181,54.801 48.542 C 54.757 47.866,54.695 47.742,54.375 47.697 C 54.051 47.651,54.000 47.544,54.000 46.905 C 54.000 46.285,53.948 46.167,53.676 46.167 C 53.415 46.167,53.343 46.031,53.301 45.458 C 53.262 44.911,53.165 44.713,52.875 44.585 C 52.669 44.495,52.500 44.289,52.500 44.127 C 52.500 43.925,52.370 43.833,52.083 43.833 C 51.701 43.833,51.667 43.772,51.667 43.087 C 51.667 42.429,51.617 42.327,51.250 42.235 C 50.989 42.170,50.833 42.013,50.833 41.815 C 50.833 41.611,50.716 41.500,50.500 41.500 C 50.256 41.500,50.167 41.389,50.167 41.083 C 50.167 40.750,50.083 40.667,49.750 40.667 C 49.417 40.667,49.333 40.583,49.333 40.250 C 49.333 39.919,49.249 39.833,48.926 39.833 C 48.566 39.833,48.513 39.751,48.468 39.125 C 48.425 38.536,48.353 38.408,48.042 38.363 C 47.771 38.325,47.667 38.198,47.667 37.908 L 47.667 37.506 51.958 37.461 L 56.250 37.417 56.303 37.042 C 56.353 36.694,56.441 36.667,57.508 36.667 C 58.591 36.667,58.666 36.642,58.763 36.259 C 58.848 35.920,58.982 35.842,59.558 35.800 C 60.130 35.759,60.259 35.685,60.303 35.375 C 60.342 35.104,60.468 35.000,60.762 35.000 C 61.051 35.000,61.167 34.908,61.167 34.678 C 61.167 34.471,61.301 34.337,61.542 34.303 C 61.783 34.269,61.936 34.116,61.970 33.875 C 62.004 33.634,62.138 33.500,62.345 33.500 C 62.577 33.500,62.667 33.384,62.667 33.083 C 62.667 32.750,62.750 32.667,63.083 32.667 C 63.466 32.667,63.500 32.606,63.500 31.917 C 63.500 31.228,63.534 31.167,63.917 31.167 C 64.305 31.167,64.333 31.110,64.333 30.345 C 64.333 29.620,64.377 29.517,64.708 29.470 L 65.083 29.417 65.128 25.227 C 65.172 21.025,65.082 20.167,64.597 20.167 C 64.428 20.167,64.337 19.947,64.301 19.458 C 64.259 18.869,64.187 18.741,63.875 18.697 C 63.604 18.658,63.500 18.532,63.500 18.238 C 63.500 17.917,63.413 17.833,63.083 17.833 C 62.750 17.833,62.667 17.750,62.667 17.417 C 62.667 17.116,62.577 17.000,62.345 17.000 C 62.138 17.000,62.004 16.866,61.970 16.625 C 61.936 16.384,61.783 16.231,61.542 16.197 C 61.301 16.163,61.167 16.029,61.167 15.822 C 61.167 15.592,61.051 15.500,60.762 15.500 C 60.468 15.500,60.342 15.396,60.303 15.125 C 60.259 14.812,60.131 14.741,59.534 14.698 C 58.952 14.656,58.788 14.570,58.663 14.240 C 58.516 13.854,58.438 13.833,57.127 13.833 C 55.854 13.833,55.733 13.804,55.581 13.458 C 55.416 13.081,48.301 12.755,47.948 13.108 M52.580 22.824 C 52.654 23.056,52.897 23.181,53.425 23.260 C 53.919 23.334,54.167 23.454,54.167 23.618 C 54.167 23.754,54.312 23.903,54.491 23.949 C 54.669 23.996,54.838 24.195,54.866 24.392 C 54.898 24.616,55.057 24.770,55.292 24.803 C 55.560 24.841,55.667 24.969,55.667 25.250 C 55.667 25.531,55.560 25.659,55.292 25.697 C 55.051 25.731,54.898 25.884,54.863 26.125 C 54.834 26.331,54.696 26.500,54.556 26.500 C 54.416 26.500,54.264 26.646,54.217 26.824 C 54.171 27.002,53.972 27.171,53.775 27.199 C 53.551 27.231,53.397 27.390,53.363 27.625 L 53.310 28.000 48.155 28.000 L 43.000 28.000 43.000 27.603 C 43.000 27.348,43.118 27.175,43.329 27.120 C 43.562 27.059,43.689 26.835,43.767 26.350 C 43.849 25.832,43.952 25.667,44.188 25.667 C 44.408 25.667,44.500 25.546,44.500 25.260 C 44.500 24.900,44.582 24.847,45.208 24.801 C 45.755 24.762,45.954 24.665,46.081 24.375 C 46.182 24.145,46.392 24.000,46.623 24.000 C 46.889 24.000,47.000 23.902,47.000 23.667 C 47.000 23.374,47.111 23.333,47.903 23.333 C 49.021 23.333,49.333 23.220,49.333 22.816 C 49.333 22.326,52.425 22.335,52.580 22.824 M73.944 24.944 C 73.883 25.006,73.833 25.193,73.833 25.361 C 73.833 25.576,73.710 25.667,73.417 25.667 C 73.083 25.667,73.000 25.750,73.000 26.083 C 73.000 26.417,72.917 26.500,72.583 26.500 C 72.283 26.500,72.167 26.590,72.167 26.822 C 72.167 26.999,72.017 27.192,71.833 27.250 C 71.566 27.335,71.500 27.502,71.500 28.095 C 71.500 28.708,71.447 28.833,71.184 28.833 C 70.780 28.833,70.667 29.146,70.667 30.264 C 70.667 31.039,70.622 31.167,70.351 31.167 C 69.980 31.167,69.833 31.478,69.833 32.264 C 69.833 32.722,69.768 32.833,69.500 32.833 C 69.280 32.833,69.167 32.944,69.167 33.161 C 69.167 33.466,69.029 33.493,67.208 33.536 C 65.335 33.581,65.248 33.599,65.198 33.950 C 65.154 34.259,65.023 34.324,64.365 34.366 C 63.700 34.409,63.575 34.473,63.530 34.792 C 63.496 35.033,63.362 35.167,63.155 35.167 C 62.885 35.167,62.833 35.287,62.833 35.917 C 62.833 36.606,62.799 36.667,62.417 36.667 L 62.000 36.667 62.000 38.580 C 62.000 40.482,62.002 40.494,62.417 40.598 C 62.677 40.664,62.833 40.821,62.833 41.018 C 62.833 41.218,62.951 41.333,63.155 41.333 C 63.362 41.333,63.496 41.467,63.530 41.708 C 63.579 42.052,63.683 42.087,64.792 42.132 C 65.950 42.179,66.000 42.198,66.000 42.591 C 66.000 42.916,65.915 43.000,65.583 43.000 C 65.194 43.000,65.167 43.056,65.167 43.833 C 65.167 44.540,65.119 44.667,64.851 44.667 C 64.447 44.667,64.333 44.979,64.333 46.085 C 64.333 46.883,64.294 46.982,63.958 47.030 C 63.648 47.074,63.575 47.203,63.533 47.775 C 63.495 48.294,63.402 48.487,63.158 48.551 C 62.878 48.624,62.833 48.785,62.833 49.734 C 62.833 50.795,62.819 50.833,62.417 50.833 C 62.029 50.833,62.000 50.890,62.000 51.655 C 62.000 52.380,61.956 52.483,61.625 52.530 C 61.255 52.583,61.250 52.615,61.250 55.167 C 61.250 57.719,61.255 57.751,61.625 57.803 C 61.896 57.842,62.000 57.968,62.000 58.262 C 62.000 58.583,62.087 58.667,62.417 58.667 C 62.750 58.667,62.833 58.750,62.833 59.083 C 62.833 59.465,62.895 59.500,63.572 59.500 C 64.211 59.500,64.317 59.551,64.363 59.875 L 64.417 60.250 70.583 60.250 L 76.750 60.250 76.911 59.883 C 77.032 59.607,77.239 59.503,77.744 59.466 C 78.290 59.426,78.426 59.348,78.469 59.052 C 78.501 58.825,78.658 58.668,78.885 58.635 C 79.185 58.593,79.259 58.457,79.301 57.875 C 79.343 57.302,79.415 57.167,79.676 57.167 C 79.974 57.167,80.000 57.040,80.000 55.583 C 80.000 54.127,79.974 54.000,79.676 54.000 C 79.415 54.000,79.343 53.864,79.301 53.292 C 79.260 52.728,79.181 52.573,78.912 52.535 C 78.725 52.508,78.500 52.321,78.412 52.118 C 78.255 51.762,78.149 51.747,75.167 51.667 C 73.471 51.621,72.271 51.546,72.500 51.500 C 72.884 51.423,72.921 51.335,72.966 50.386 C 73.010 49.468,73.056 49.349,73.383 49.302 C 73.694 49.258,73.758 49.129,73.801 48.458 C 73.843 47.803,73.907 47.667,74.176 47.667 C 74.466 47.667,74.500 47.545,74.500 46.500 C 74.500 45.367,74.512 45.333,74.917 45.333 C 75.306 45.333,75.333 45.278,75.333 44.500 C 75.333 43.722,75.361 43.667,75.750 43.667 C 76.132 43.667,76.167 43.605,76.167 42.921 L 76.167 42.175 78.875 42.129 C 81.541 42.084,81.584 42.077,81.637 41.708 C 81.678 41.417,81.799 41.333,82.178 41.333 C 82.545 41.333,82.667 41.255,82.667 41.020 C 82.667 40.848,82.967 40.144,83.333 39.457 C 83.995 38.215,84.000 38.192,84.000 36.371 C 84.000 34.376,83.979 34.333,82.998 34.333 C 82.632 34.333,82.511 34.247,82.470 33.958 C 82.421 33.614,82.317 33.579,81.208 33.534 L 80.000 33.485 80.000 32.754 C 80.000 32.123,80.051 32.016,80.375 31.970 C 80.747 31.917,80.750 31.890,80.795 28.792 L 80.841 25.667 80.420 25.667 C 80.119 25.667,80.000 25.577,80.000 25.351 C 80.000 25.178,79.881 24.990,79.736 24.934 C 79.377 24.796,74.083 24.806,73.944 24.944 M38.333 43.353 C 38.333 43.576,38.453 43.667,38.750 43.667 C 39.083 43.667,39.167 43.750,39.167 44.083 C 39.167 44.381,39.257 44.500,39.481 44.500 C 39.726 44.500,39.820 44.666,39.908 45.250 C 39.994 45.823,40.092 46.000,40.324 46.000 C 40.491 46.000,40.668 46.155,40.718 46.346 C 40.768 46.536,40.964 46.732,41.154 46.782 C 41.382 46.841,41.500 47.008,41.500 47.269 C 41.500 47.582,41.589 47.667,41.917 47.667 C 42.250 47.667,42.333 47.750,42.333 48.083 C 42.333 48.379,42.424 48.500,42.645 48.500 C 42.882 48.500,42.984 48.666,43.067 49.183 C 43.144 49.669,43.271 49.892,43.505 49.953 C 43.716 50.008,43.833 50.181,43.833 50.436 C 43.833 50.749,43.922 50.833,44.250 50.833 C 44.633 50.833,44.667 50.894,44.667 51.583 C 44.667 52.222,44.716 52.333,45.000 52.333 C 45.322 52.333,45.333 52.444,45.333 55.564 C 45.333 58.654,45.319 58.798,45.000 58.882 C 44.739 58.950,44.667 59.109,44.667 59.612 C 44.667 60.118,44.587 60.289,44.292 60.419 C 44.002 60.546,43.905 60.745,43.865 61.292 C 43.820 61.918,43.767 62.000,43.407 62.000 C 43.120 62.000,43.000 62.092,43.000 62.314 C 43.000 62.488,42.851 62.667,42.667 62.715 C 42.467 62.767,42.333 62.942,42.333 63.151 C 42.333 63.412,42.228 63.500,41.917 63.500 C 41.583 63.500,41.500 63.583,41.500 63.917 C 41.500 64.250,41.417 64.333,41.083 64.333 C 40.782 64.333,40.667 64.423,40.667 64.657 C 40.667 64.919,40.531 64.991,39.958 65.032 C 39.373 65.074,39.241 65.148,39.198 65.452 C 39.148 65.798,39.050 65.824,37.614 65.869 C 36.170 65.914,36.080 65.938,36.030 66.292 C 35.983 66.622,35.880 66.667,35.167 66.667 C 34.453 66.667,34.350 66.622,34.303 66.292 C 34.254 65.948,34.150 65.913,33.042 65.868 C 31.984 65.825,31.833 65.779,31.833 65.503 C 31.833 65.256,31.669 65.162,31.083 65.075 C 30.499 64.987,30.333 64.893,30.333 64.648 C 30.333 64.448,30.216 64.333,30.012 64.333 C 29.805 64.333,29.671 64.199,29.637 63.958 C 29.603 63.724,29.449 63.564,29.225 63.532 C 29.028 63.504,28.828 63.330,28.779 63.145 C 28.731 62.960,28.536 62.768,28.346 62.718 C 28.150 62.667,28.000 62.491,28.000 62.314 C 28.000 62.090,27.880 62.000,27.583 62.000 C 27.178 62.000,27.167 61.968,27.167 60.818 C 27.167 59.776,27.127 59.625,26.833 59.548 C 26.541 59.472,26.500 59.321,26.500 58.333 C 26.500 57.346,26.541 57.195,26.833 57.118 C 27.124 57.042,27.167 56.891,27.167 55.944 C 27.167 54.943,27.197 54.852,27.542 54.803 C 27.862 54.758,27.924 54.634,27.967 53.958 C 28.013 53.244,28.058 53.167,28.426 53.167 C 28.746 53.167,28.833 53.080,28.833 52.762 C 28.833 52.468,28.937 52.342,29.208 52.303 C 29.443 52.270,29.602 52.116,29.634 51.892 C 29.662 51.695,29.831 51.496,30.009 51.449 C 30.188 51.403,30.333 51.250,30.333 51.111 C 30.333 50.971,30.502 50.833,30.708 50.803 C 30.949 50.769,31.102 50.616,31.137 50.375 C 31.175 50.104,31.302 50.000,31.595 50.000 C 31.885 50.000,32.000 49.908,32.000 49.676 C 32.000 49.415,32.136 49.343,32.708 49.301 C 33.291 49.259,33.426 49.185,33.469 48.884 C 33.511 48.584,33.646 48.509,34.219 48.467 C 34.797 48.425,34.926 48.352,34.970 48.042 C 35.008 47.770,35.135 47.667,35.428 47.667 C 35.749 47.667,35.833 47.580,35.833 47.250 C 35.833 46.917,35.917 46.833,36.250 46.833 C 36.632 46.833,36.667 46.771,36.667 46.095 C 36.667 45.456,36.717 45.349,37.042 45.303 C 37.385 45.255,37.421 45.150,37.465 44.066 C 37.513 42.908,37.523 42.884,37.923 42.961 C 38.186 43.011,38.333 43.152,38.333 43.353 " stroke="none" fill="#fc1c04" fill-rule="evenodd"></path><path id="path2" d="M83.290 39.542 C 82.680 40.717,82.516 41.333,82.812 41.333 C 82.892 41.333,83.005 41.036,83.063 40.673 C 83.122 40.301,83.350 39.832,83.584 39.598 C 83.906 39.276,84.185 38.332,83.958 38.334 C 83.935 38.334,83.635 38.878,83.290 39.542 " stroke="none" fill="#ece0a4" fill-rule="evenodd"></path><path id="path3" d="M83.290 39.542 C 82.680 40.717,82.516 41.333,82.812 41.333 C 82.892 41.333,83.005 41.036,83.063 40.673 C 83.122 40.301,83.350 39.832,83.584 39.598 C 83.906 39.276,84.185 38.332,83.958 38.334 C 83.935 38.334,83.635 38.878,83.290 39.542 " stroke="none" fill="#ece0a4" fill-rule="evenodd"></path><path id="path4" d="M83.290 39.542 C 82.680 40.717,82.516 41.333,82.812 41.333 C 82.892 41.333,83.005 41.036,83.063 40.673 C 83.122 40.301,83.350 39.832,83.584 39.598 C 83.906 39.276,84.185 38.332,83.958 38.334 C 83.935 38.334,83.635 38.878,83.290 39.542 " stroke="none" fill="#ece0a4" fill-rule="evenodd"></path></g></svg>